  0
SECTION
  2
HEADER
  9
$ACADVER
  1
AC1024
  9
$ACADMAINTVER
 70
6
  9
$DWGCODEPAGE
  3
ANSI_1252
  9
$LASTSAVEDBY
  1
ezdxf
  9
$INSBASE
 10
0.0
 20
0.0
 30
0.0
  9
$EXTMIN
 10
1e+20
 20
1e+20
 30
1e+20
  9
$EXTMAX
 10
-1e+20
 20
-1e+20
 30
-1e+20
  9
$LIMMIN
 10
0.0
 20
0.0
  9
$LIMMAX
 10
420.0
 20
297.0
  9
$ORTHOMODE
 70
0
  9
$REGENMODE
 70
1
  9
$FILLMODE
 70
1
  9
$QTEXTMODE
 70
0
  9
$MIRRTEXT
 70
1
  9
$LTSCALE
 40
1.0
  9
$ATTMODE
 70
1
  9
$TEXTSIZE
 40
2.5
  9
$TRACEWID
 40
1.0
  9
$TEXTSTYLE
  7
Standard
  9
$CLAYER
  8
0
  9
$CELTYPE
  6
ByLayer
  9
$CECOLOR
 62
256
  9
$CELTSCALE
 40
1.0
  9
$DISPSILH
 70
0
  9
$DIMSCALE
 40
1.0
  9
$DIMASZ
 40
2.5
  9
$DIMEXO
 40
0.625
  9
$DIMDLI
 40
3.75
  9
$DIMRND
 40
0.0
  9
$DIMDLE
 40
0.0
  9
$DIMEXE
 40
1.25
  9
$DIMTP
 40
0.0
  9
$DIMTM
 40
0.0
  9
$DIMTXT
 40
2.5
  9
$DIMCEN
 40
2.5
  9
$DIMTSZ
 40
0.0
  9
$DIMTOL
 70
0
  9
$DIMLIM
 70
0
  9
$DIMTIH
 70
0
  9
$DIMTOH
 70
0
  9
$DIMSE1
 70
0
  9
$DIMSE2
 70
0
  9
$DIMTAD
 70
1
  9
$DIMZIN
 70
8
  9
$DIMBLK
  1

  9
$DIMASO
 70
1
  9
$DIMSHO
 70
1
  9
$DIMPOST
  1

  9
$DIMAPOST
  1

  9
$DIMALT
 70
0
  9
$DIMALTD
 70
3
  9
$DIMALTF
 40
0.03937007874
  9
$DIMLFAC
 40
1.0
  9
$DIMTOFL
 70
1
  9
$DIMTVP
 40
0.0
  9
$DIMTIX
 70
0
  9
$DIMSOXD
 70
0
  9
$DIMSAH
 70
0
  9
$DIMBLK1
  1

  9
$DIMBLK2
  1

  9
$DIMSTYLE
  2
ISO-25
  9
$DIMCLRD
 70
0
  9
$DIMCLRE
 70
0
  9
$DIMCLRT
 70
0
  9
$DIMTFAC
 40
1.0
  9
$DIMGAP
 40
0.625
  9
$DIMJUST
 70
0
  9
$DIMSD1
 70
0
  9
$DIMSD2
 70
0
  9
$DIMTOLJ
 70
0
  9
$DIMTZIN
 70
8
  9
$DIMALTZ
 70
0
  9
$DIMALTTZ
 70
0
  9
$DIMUPT
 70
0
  9
$DIMDEC
 70
2
  9
$DIMTDEC
 70
2
  9
$DIMALTU
 70
2
  9
$DIMALTTD
 70
3
  9
$DIMTXSTY
  7
Standard
  9
$DIMAUNIT
 70
0
  9
$DIMADEC
 70
0
  9
$DIMALTRND
 40
0.0
  9
$DIMAZIN
 70
0
  9
$DIMDSEP
 70
44
  9
$DIMATFIT
 70
3
  9
$DIMFRAC
 70
0
  9
$DIMLDRBLK
  1

  9
$DIMLUNIT
 70
2
  9
$DIMLWD
 70
-2
  9
$DIMLWE
 70
-2
  9
$DIMTMOVE
 70
0
  9
$DIMFXL
 40
1.0
  9
$DIMFXLON
 70
0
  9
$DIMJOGANG
 40
0.785398163397
  9
$DIMTFILL
 70
0
  9
$DIMTFILLCLR
 70
0
  9
$DIMARCSYM
 70
0
  9
$DIMLTYPE
  6

  9
$DIMLTEX1
  6

  9
$DIMLTEX2
  6

  9
$DIMTXTDIRECTION
 70
0
  9
$LUNITS
 70
2
  9
$LUPREC
 70
4
  9
$SKETCHINC
 40
1.0
  9
$FILLETRAD
 40
10.0
  9
$AUNITS
 70
0
  9
$AUPREC
 70
2
  9
$MENU
  1
.
  9
$ELEVATION
 40
0.0
  9
$PELEVATION
 40
0.0
  9
$THICKNESS
 40
0.0
  9
$LIMCHECK
 70
0
  9
$CHAMFERA
 40
0.0
  9
$CHAMFERB
 40
0.0
  9
$CHAMFERC
 40
0.0
  9
$CHAMFERD
 40
0.0
  9
$SKPOLY
 70
0
  9
$TDCREATE
 40
2461205.723090278
  9
$TDUCREATE
 40
2458532.153996898
  9
$TDUPDATE
 40
2461205.723090278
  9
$TDUUPDATE
 40
2458532.1544311
  9
$TDINDWG
 40
0.0
  9
$TDUSRTIMER
 40
0.0
  9
$USRTIMER
 70
1
  9
$ANGBASE
 50
0.0
  9
$ANGDIR
 70
0
  9
$PDMODE
 70
0
  9
$PDSIZE
 40
0.0
  9
$PLINEWID
 40
0.0
  9
$SPLFRAME
 70
0
  9
$SPLINETYPE
 70
6
  9
$SPLINESEGS
 70
8
  9
$HANDSEED
  5
42
  9
$SURFTAB1
 70
6
  9
$SURFTAB2
 70
6
  9
$SURFTYPE
 70
6
  9
$SURFU
 70
6
  9
$SURFV
 70
6
  9
$UCSBASE
  2

  9
$UCSNAME
  2

  9
$UCSORG
 10
0.0
 20
0.0
 30
0.0
  9
$UCSXDIR
 10
1.0
 20
0.0
 30
0.0
  9
$UCSYDIR
 10
0.0
 20
1.0
 30
0.0
  9
$UCSORTHOREF
  2

  9
$UCSORTHOVIEW
 70
0
  9
$UCSORGTOP
 10
0.0
 20
0.0
 30
0.0
  9
$UCSORGBOTTOM
 10
0.0
 20
0.0
 30
0.0
  9
$UCSORGLEFT
 10
0.0
 20
0.0
 30
0.0
  9
$UCSORGRIGHT
 10
0.0
 20
0.0
 30
0.0
  9
$UCSORGFRONT
 10
0.0
 20
0.0
 30
0.0
  9
$UCSORGBACK
 10
0.0
 20
0.0
 30
0.0
  9
$PUCSBASE
  2

  9
$PUCSNAME
  2

  9
$PUCSORG
 10
0.0
 20
0.0
 30
0.0
  9
$PUCSXDIR
 10
1.0
 20
0.0
 30
0.0
  9
$PUCSYDIR
 10
0.0
 20
1.0
 30
0.0
  9
$PUCSORTHOREF
  2

  9
$PUCSORTHOVIEW
 70
0
  9
$PUCSORGTOP
 10
0.0
 20
0.0
 30
0.0
  9
$PUCSORGBOTTOM
 10
0.0
 20
0.0
 30
0.0
  9
$PUCSORGLEFT
 10
0.0
 20
0.0
 30
0.0
  9
$PUCSORGRIGHT
 10
0.0
 20
0.0
 30
0.0
  9
$PUCSORGFRONT
 10
0.0
 20
0.0
 30
0.0
  9
$PUCSORGBACK
 10
0.0
 20
0.0
 30
0.0
  9
$USERI1
 70
0
  9
$USERI2
 70
0
  9
$USERI3
 70
0
  9
$USERI4
 70
0
  9
$USERI5
 70
0
  9
$USERR1
 40
0.0
  9
$USERR2
 40
0.0
  9
$USERR3
 40
0.0
  9
$USERR4
 40
0.0
  9
$USERR5
 40
0.0
  9
$WORLDVIEW
 70
1
  9
$SHADEDGE
 70
3
  9
$SHADEDIF
 70
70
  9
$TILEMODE
 70
1
  9
$MAXACTVP
 70
64
  9
$PINSBASE
 10
0.0
 20
0.0
 30
0.0
  9
$PLIMCHECK
 70
0
  9
$PEXTMIN
 10
1e+20
 20
1e+20
 30
1e+20
  9
$PEXTMAX
 10
-1e+20
 20
-1e+20
 30
-1e+20
  9
$PLIMMIN
 10
0.0
 20
0.0
  9
$PLIMMAX
 10
420.0
 20
297.0
  9
$UNITMODE
 70
0
  9
$VISRETAIN
 70
1
  9
$PLINEGEN
 70
0
  9
$PSLTSCALE
 70
1
  9
$TREEDEPTH
 70
3020
  9
$CMLSTYLE
  2
Standard
  9
$CMLJUST
 70
0
  9
$CMLSCALE
 40
20.0
  9
$PROXYGRAPHICS
 70
1
  9
$MEASUREMENT
 70
1
  9
$CELWEIGHT
370
-1
  9
$ENDCAPS
280
0
  9
$JOINSTYLE
280
0
  9
$LWDISPLAY
290
0
  9
$INSUNITS
 70
6
  9
$HYPERLINKBASE
  1

  9
$STYLESHEET
  1

  9
$XEDIT
290
1
  9
$CEPSNTYPE
380
0
  9
$PSTYLEMODE
290
1
  9
$FINGERPRINTGUID
  2
{9A3EFC25-7C36-45B0-9270-666D6CB684D0}
  9
$VERSIONGUID
  2
{22AC6F88-B837-417D-96BE-4A9FCC725354}
  9
$EXTNAMES
290
1
  9
$PSVPSCALE
 40
0.0
  9
$OLESTARTUP
290
0
  9
$SORTENTS
280
127
  9
$INDEXCTL
280
0
  9
$HIDETEXT
280
1
  9
$XCLIPFRAME
280
1
  9
$HALOGAP
280
0
  9
$OBSCOLOR
 70
257
  9
$OBSLTYPE
280
0
  9
$INTERSECTIONDISPLAY
280
0
  9
$INTERSECTIONCOLOR
 70
257
  9
$DIMASSOC
280
2
  9
$PROJECTNAME
  1

  9
$CAMERADISPLAY
290
0
  9
$LENSLENGTH
 40
50.0
  9
$CAMERAHEIGHT
 40
0.0
  9
$STEPSPERSEC
 40
24.0
  9
$STEPSIZE
 40
100.0
  9
$3DDWFPREC
 40
2.0
  9
$PSOLWIDTH
 40
0.005
  9
$PSOLHEIGHT
 40
0.08
  9
$LOFTANG1
 40
1.570796326795
  9
$LOFTANG2
 40
1.570796326795
  9
$LOFTMAG1
 40
0.0
  9
$LOFTMAG2
 40
0.0
  9
$LOFTPARAM
 70
7
  9
$LOFTNORMALS
280
1
  9
$LATITUDE
 40
37.795
  9
$LONGITUDE
 40
-122.394
  9
$NORTHDIRECTION
 40
0.0
  9
$TIMEZONE
 70
-8000
  9
$LIGHTGLYPHDISPLAY
280
1
  9
$TILEMODELIGHTSYNCH
280
1
  9
$CMATERIAL
347
20
  9
$SOLIDHIST
280
0
  9
$SHOWHIST
280
1
  9
$DWFFRAME
280
2
  9
$DGNFRAME
280
2
  9
$REALWORLDSCALE
290
1
  9
$INTERFERECOLOR
 62
256
  9
$CSHADOW
280
0
  9
$SHADOWPLANELOCATION
 40
0.0
  0
ENDSEC
  0
SECTION
  2
CLASSES
  0
CLASS
  1
ACDBDICTIONARYWDFLT
  2
AcDbDictionaryWithDefault
  3
ObjectDBX Classes
 90
0
 91
0
280
0
281
0
  0
CLASS
  1
SUN
  2
AcDbSun
  3
SCENEOE
 90
1153
 91
0
280
0
281
0
  0
CLASS
  1
VISUALSTYLE
  2
AcDbVisualStyle
  3
ObjectDBX Classes
 90
4095
 91
0
280
0
281
0
  0
CLASS
  1
MATERIAL
  2
AcDbMaterial
  3
ObjectDBX Classes
 90
1153
 91
0
280
0
281
0
  0
CLASS
  1
SCALE
  2
AcDbScale
  3
ObjectDBX Classes
 90
1153
 91
0
280
0
281
0
  0
CLASS
  1
TABLESTYLE
  2
AcDbTableStyle
  3
ObjectDBX Classes
 90
4095
 91
0
280
0
281
0
  0
CLASS
  1
MLEADERSTYLE
  2
AcDbMLeaderStyle
  3
ACDB_MLEADERSTYLE_CLASS
 90
4095
 91
0
280
0
281
0
  0
CLASS
  1
DICTIONARYVAR
  2
AcDbDictionaryVar
  3
ObjectDBX Classes
 90
0
 91
0
280
0
281
0
  0
CLASS
  1
CELLSTYLEMAP
  2
AcDbCellStyleMap
  3
ObjectDBX Classes
 90
1152
 91
0
280
0
281
0
  0
CLASS
  1
MENTALRAYRENDERSETTINGS
  2
AcDbMentalRayRenderSettings
  3
SCENEOE
 90
1024
 91
0
280
0
281
0
  0
CLASS
  1
ACDBDETAILVIEWSTYLE
  2
AcDbDetailViewStyle
  3
ObjectDBX Classes
 90
1025
 91
0
280
0
281
0
  0
CLASS
  1
ACDBSECTIONVIEWSTYLE
  2
AcDbSectionViewStyle
  3
ObjectDBX Classes
 90
1025
 91
0
280
0
281
0
  0
CLASS
  1
RASTERVARIABLES
  2
AcDbRasterVariables
  3
ISM
 90
0
 91
0
280
0
281
0
  0
CLASS
  1
ACDBPLACEHOLDER
  2
AcDbPlaceHolder
  3
ObjectDBX Classes
 90
0
 91
0
280
0
281
0
  0
CLASS
  1
LAYOUT
  2
AcDbLayout
  3
ObjectDBX Classes
 90
0
 91
0
280
0
281
0
  0
ENDSEC
  0
SECTION
  2
TABLES
  0
TABLE
  2
VPORT
  5
8
330
0
100
AcDbSymbolTable
 70
1
  0
VPORT
  5
23
330
8
100
AcDbSymbolTableRecord
100
AcDbViewportTableRecord
  2
*Active
 70
0
 10
0.0
 20
0.0
 11
1.0
 21
1.0
 12
0.0
 22
0.0
 13
0.0
 23
0.0
 14
0.5
 24
0.5
 15
0.5
 25
0.5
 16
0.0
 26
0.0
 36
1.0
 17
0.0
 27
0.0
 37
0.0
 40
1000.0
 41
1.34
 42
50.0
 43
0.0
 44
0.0
 50
0.0
 51
0.0
 71
0
 72
1000
 73
1
 74
3
 75
0
 76
0
 77
0
 78
0
281
0
 65
0
146
0.0
  0
ENDTAB
  0
TABLE
  2
LTYPE
  5
2
330
0
100
AcDbSymbolTable
 70
3
  0
LTYPE
  5
24
330
2
100
AcDbSymbolTableRecord
100
AcDbLinetypeTableRecord
  2
ByBlock
 70
0
  3

 72
65
 73
0
 40
0.0
  0
LTYPE
  5
25
330
2
100
AcDbSymbolTableRecord
100
AcDbLinetypeTableRecord
  2
ByLayer
 70
0
  3

 72
65
 73
0
 40
0.0
  0
LTYPE
  5
26
330
2
100
AcDbSymbolTableRecord
100
AcDbLinetypeTableRecord
  2
Continuous
 70
0
  3

 72
65
 73
0
 40
0.0
  0
ENDTAB
  0
TABLE
  2
LAYER
  5
1
330
0
100
AcDbSymbolTable
 70
9
  0
LAYER
  5
27
330
1
100
AcDbSymbolTableRecord
100
AcDbLayerTableRecord
  2
0
 70
0
 62
7
  6
Continuous
370
-3
390
13
347
21
  0
LAYER
  5
28
330
1
100
AcDbSymbolTableRecord
100
AcDbLayerTableRecord
  2
Defpoints
 70
0
 62
7
  6
Continuous
290
0
370
-3
390
13
347
21
  0
LAYER
  5
2F
330
1
100
AcDbSymbolTableRecord
100
AcDbLayerTableRecord
  2
ROAD
 70
0
 62
8
  6
Continuous
370
-3
390
13
347
21
  0
LAYER
  5
30
330
1
100
AcDbSymbolTableRecord
100
AcDbLayerTableRecord
  2
WATER
 70
0
 62
5
  6
Continuous
370
-3
390
13
347
21
  0
LAYER
  5
31
330
1
100
AcDbSymbolTableRecord
100
AcDbLayerTableRecord
  2
ANNOT
 70
0
 62
2
  6
Continuous
370
-3
390
13
347
21
  0
LAYER
  5
33
330
1
100
AcDbSymbolTableRecord
100
AcDbLayerTableRecord
  2
CRACK_C04
 70
0
 62
250
  6
Continuous
370
-3
390
13
347
21
  0
LAYER
  5
35
330
1
100
AcDbSymbolTableRecord
100
AcDbLayerTableRecord
  2
CRACK_C03
 70
0
 62
250
  6
Continuous
370
-3
390
13
347
21
  0
LAYER
  5
37
330
1
100
AcDbSymbolTableRecord
100
AcDbLayerTableRecord
  2
CRACK_C01
 70
0
 62
250
  6
Continuous
370
-3
390
13
347
21
  0
LAYER
  5
39
330
1
100
AcDbSymbolTableRecord
100
AcDbLayerTableRecord
  2
CRACK_C02
 70
0
 62
250
  6
Continuous
370
-3
390
13
347
21
  0
ENDTAB
  0
TABLE
  2
STYLE
  5
5
330
0
100
AcDbSymbolTable
 70
1
  0
STYLE
  5
29
330
5
100
AcDbSymbolTableRecord
100
AcDbTextStyleTableRecord
  2
Standard
 70
0
 40
0.0
 41
1.0
 50
0.0
 71
0
 42
2.5
  3
txt
  4

  0
ENDTAB
  0
TABLE
  2
VIEW
  5
7
330
0
100
AcDbSymbolTable
 70
0
  0
ENDTAB
  0
TABLE
  2
UCS
  5
6
330
0
100
AcDbSymbolTable
 70
0
  0
ENDTAB
  0
TABLE
  2
APPID
  5
3
330
0
100
AcDbSymbolTable
 70
3
  0
APPID
  5
2A
330
3
100
AcDbSymbolTableRecord
100
AcDbRegAppTableRecord
  2
ACAD
 70
0
  0
APPID
  5
3F
330
3
100
AcDbSymbolTableRecord
100
AcDbRegAppTableRecord
  2
HATCHBACKGROUNDCOLOR
 70
0
  0
APPID
  5
40
330
3
100
AcDbSymbolTableRecord
100
AcDbRegAppTableRecord
  2
EZDXF
 70
0
  0
ENDTAB
  0
TABLE
  2
DIMSTYLE
  5
4
330
0
100
AcDbSymbolTable
 70
1
100
AcDbDimStyleTable
  0
DIMSTYLE
105
2B
330
4
100
AcDbSymbolTableRecord
100
AcDbDimStyleTableRecord
  2
Standard
 70
0
 40
1.0
 41
2.5
 42
0.625
 43
3.75
 44
1.25
 45
0.0
 46
0.0
 47
0.0
 48
0.0
 49
2.5
140
2.5
141
2.5
142
0.0
143
0.03937007874
144
1.0
145
0.0
146
1.0
147
0.625
148
0.0
 69
0
 70
0
 71
0
 72
0
 73
0
 74
0
 75
0
 76
0
 77
1
 78
8
 79
3
170
0
171
3
172
1
173
0
174
0
175
0
176
0
177
0
178
0
179
2
271
2
272
2
273
2
274
3
275
0
276
0
277
2
278
44
279
0
280
0
281
0
282
0
283
0
284
8
285
0
286
0
288
0
289
3
290
0
371
-2
372
-2
  0
ENDTAB
  0
TABLE
  2
BLOCK_RECORD
  5
9
330
0
100
AcDbSymbolTable
 70
2
  0
BLOCK_RECORD
  5
17
330
9
100
AcDbSymbolTableRecord
100
AcDbBlockTableRecord
  2
*Model_Space
340
1A
 70
0
280
1
281
0
  0
BLOCK_RECORD
  5
1B
330
9
100
AcDbSymbolTableRecord
100
AcDbBlockTableRecord
  2
*Paper_Space
340
1E
 70
0
280
1
281
0
  0
ENDTAB
  0
ENDSEC
  0
SECTION
  2
BLOCKS
  0
BLOCK
  5
18
330
17
100
AcDbEntity
  8
0
100
AcDbBlockBegin
  2
*Model_Space
 70
0
 10
0.0
 20
0.0
 30
0.0
  3
*Model_Space
  1

  0
ENDBLK
  5
19
330
17
100
AcDbEntity
  8
0
100
AcDbBlockEnd
  0
BLOCK
  5
1C
330
1B
100
AcDbEntity
  8
0
100
AcDbBlockBegin
  2
*Paper_Space
 70
0
 10
0.0
 20
0.0
 30
0.0
  3
*Paper_Space
  1

  0
ENDBLK
  5
1D
330
1B
100
AcDbEntity
  8
0
100
AcDbBlockEnd
  0
ENDSEC
  0
SECTION
  2
ENTITIES
  0
MESH
  5
32
330
17
100
AcDbEntity
  8
ROAD
100
AcDbSubDMesh
 71
2
 72
0
 91
0
 92
280
 10
-9.0
 20
-4.0
 30
-0.15999984741210938
 10
-7.5
 20
-4.0
 30
0.039997100830078125
 10
-7.5
 20
-3.2
 30
0.039997100830078125
 10
-9.0
 20
-3.2
 30
-0.15999984741210938
 10
-9.0
 20
-3.2
 30
-0.15999984741210938
 10
-7.5
 20
-3.2
 30
0.039997100830078125
 10
-7.5
 20
-2.4000000000000004
 30
0.039997100830078125
 10
-9.0
 20
-2.4000000000000004
 30
-0.15999984741210938
 10
-9.0
 20
-2.4000000000000004
 30
-0.15999984741210938
 10
-7.5
 20
-2.4000000000000004
 30
0.039997100830078125
 10
-7.5
 20
-1.6000000000000005
 30
0.039997100830078125
 10
-9.0
 20
-1.6000000000000005
 30
-0.15999984741210938
 10
-9.0
 20
-1.6000000000000005
 30
-0.15999984741210938
 10
-7.5
 20
-1.6000000000000005
 30
0.039997100830078125
 10
-7.5
 20
-0.8000000000000007
 30
0.039997100830078125
 10
-9.0
 20
-0.8000000000000007
 30
-0.15999984741210938
 10
-9.0
 20
-0.8000000000000007
 30
-0.15999984741210938
 10
-7.5
 20
-0.8000000000000007
 30
0.039997100830078125
 10
-7.5
 20
-8.881784197001252e-16
 30
0.039997100830078125
 10
-9.0
 20
-8.881784197001252e-16
 30
-0.15999984741210938
 10
-9.0
 20
-8.881784197001252e-16
 30
-0.15999984741210938
 10
-7.5
 20
-8.881784197001252e-16
 30
0.039997100830078125
 10
-7.5
 20
0.7999999999999989
 30
0.039997100830078125
 10
-9.0
 20
0.7999999999999989
 30
-0.15999984741210938
 10
-9.0
 20
0.7999999999999989
 30
-0.15999984741210938
 10
-7.5
 20
0.7999999999999989
 30
0.039997100830078125
 10
-7.5
 20
1.5999999999999988
 30
0.039997100830078125
 10
-9.0
 20
1.5999999999999988
 30
-0.15999984741210938
 10
-9.0
 20
1.5999999999999988
 30
-0.15999984741210938
 10
-7.5
 20
1.5999999999999988
 30
0.039997100830078125
 10
-7.5
 20
2.3999999999999986
 30
0.039997100830078125
 10
-9.0
 20
2.3999999999999986
 30
-0.15999984741210938
 10
-9.0
 20
2.3999999999999986
 30
-0.15999984741210938
 10
-7.5
 20
2.3999999999999986
 30
0.039997100830078125
 10
-7.5
 20
3.1999999999999984
 30
0.039997100830078125
 10
-9.0
 20
3.1999999999999984
 30
-0.15999984741210938
 10
-9.0
 20
3.1999999999999984
 30
-0.15999984741210938
 10
-7.5
 20
3.1999999999999984
 30
0.039997100830078125
 10
-7.5
 20
3.9999999999999982
 30
0.039997100830078125
 10
-9.0
 20
3.9999999999999982
 30
-0.15999984741210938
 10
-7.5
 20
-4.0
 30
0.039997100830078125
 10
-6.0
 20
-4.0
 30
0.23999786376953125
 10
-6.0
 20
-3.2
 30
0.23999786376953125
 10
-7.5
 20
-3.2
 30
0.039997100830078125
 10
-7.5
 20
-3.2
 30
0.039997100830078125
 10
-6.0
 20
-3.2
 30
0.23999786376953125
 10
-6.0
 20
-2.4000000000000004
 30
0.23999786376953125
 10
-7.5
 20
-2.4000000000000004
 30
0.039997100830078125
 10
-7.5
 20
-2.4000000000000004
 30
0.039997100830078125
 10
-6.0
 20
-2.4000000000000004
 30
0.23999786376953125
 10
-6.0
 20
-1.6000000000000005
 30
0.23999786376953125
 10
-7.5
 20
-1.6000000000000005
 30
0.039997100830078125
 10
-7.5
 20
-1.6000000000000005
 30
0.039997100830078125
 10
-6.0
 20
-1.6000000000000005
 30
0.23999786376953125
 10
-6.0
 20
-0.8000000000000007
 30
0.23999786376953125
 10
-7.5
 20
-0.8000000000000007
 30
0.039997100830078125
 10
-7.5
 20
-0.8000000000000007
 30
0.039997100830078125
 10
-6.0
 20
-0.8000000000000007
 30
0.23999786376953125
 10
-6.0
 20
-8.881784197001252e-16
 30
0.23999786376953125
 10
-7.5
 20
-8.881784197001252e-16
 30
0.039997100830078125
 10
-7.5
 20
-8.881784197001252e-16
 30
0.039997100830078125
 10
-6.0
 20
-8.881784197001252e-16
 30
0.23999786376953125
 10
-6.0
 20
0.7999999999999989
 30
0.23999786376953125
 10
-7.5
 20
0.7999999999999989
 30
0.039997100830078125
 10
-7.5
 20
0.7999999999999989
 30
0.039997100830078125
 10
-6.0
 20
0.7999999999999989
 30
0.23999786376953125
 10
-6.0
 20
1.5999999999999988
 30
0.23999786376953125
 10
-7.5
 20
1.5999999999999988
 30
0.039997100830078125
 10
-7.5
 20
1.5999999999999988
 30
0.039997100830078125
 10
-6.0
 20
1.5999999999999988
 30
0.23999786376953125
 10
-6.0
 20
2.3999999999999986
 30
0.23999786376953125
 10
-7.5
 20
2.3999999999999986
 30
0.039997100830078125
 10
-7.5
 20
2.3999999999999986
 30
0.039997100830078125
 10
-6.0
 20
2.3999999999999986
 30
0.23999786376953125
 10
-6.0
 20
3.1999999999999984
 30
0.23999786376953125
 10
-7.5
 20
3.1999999999999984
 30
0.039997100830078125
 10
-7.5
 20
3.1999999999999984
 30
0.039997100830078125
 10
-6.0
 20
3.1999999999999984
 30
0.23999786376953125
 10
-6.0
 20
3.9999999999999982
 30
0.23999786376953125
 10
-7.5
 20
3.9999999999999982
 30
0.039997100830078125
 10
-6.0
 20
-4.0
 30
0.23999786376953125
 10
-4.5
 20
-4.0
 30
0.7599983215332031
 10
-4.5
 20
-3.2
 30
0.7599983215332031
 10
-6.0
 20
-3.2
 30
0.23999786376953125
 10
-6.0
 20
-3.2
 30
0.23999786376953125
 10
-4.5
 20
-3.2
 30
0.7599983215332031
 10
-4.5
 20
-2.4000000000000004
 30
0.7599983215332031
 10
-6.0
 20
-2.4000000000000004
 30
0.23999786376953125
 10
-6.0
 20
-2.4000000000000004
 30
0.23999786376953125
 10
-4.5
 20
-2.4000000000000004
 30
0.7599983215332031
 10
-4.5
 20
-1.6000000000000005
 30
0.7599983215332031
 10
-6.0
 20
-1.6000000000000005
 30
0.23999786376953125
 10
-6.0
 20
-1.6000000000000005
 30
0.23999786376953125
 10
-4.5
 20
-1.6000000000000005
 30
0.7599983215332031
 10
-4.5
 20
-0.8000000000000007
 30
0.7599983215332031
 10
-6.0
 20
-0.8000000000000007
 30
0.23999786376953125
 10
-6.0
 20
-0.8000000000000007
 30
0.23999786376953125
 10
-4.5
 20
-0.8000000000000007
 30
0.7599983215332031
 10
-4.5
 20
-8.881784197001252e-16
 30
0.7599983215332031
 10
-6.0
 20
-8.881784197001252e-16
 30
0.23999786376953125
 10
-6.0
 20
-8.881784197001252e-16
 30
0.23999786376953125
 10
-4.5
 20
-8.881784197001252e-16
 30
0.7599983215332031
 10
-4.5
 20
0.7999999999999989
 30
0.7599983215332031
 10
-6.0
 20
0.7999999999999989
 30
0.23999786376953125
 10
-6.0
 20
0.7999999999999989
 30
0.23999786376953125
 10
-4.5
 20
0.7999999999999989
 30
0.7599983215332031
 10
-4.5
 20
1.5999999999999988
 30
0.7599983215332031
 10
-6.0
 20
1.5999999999999988
 30
0.23999786376953125
 10
-6.0
 20
1.5999999999999988
 30
0.23999786376953125
 10
-4.5
 20
1.5999999999999988
 30
0.7599983215332031
 10
-4.5
 20
2.3999999999999986
 30
0.7599983215332031
 10
-6.0
 20
2.3999999999999986
 30
0.23999786376953125
 10
-6.0
 20
2.3999999999999986
 30
0.23999786376953125
 10
-4.5
 20
2.3999999999999986
 30
0.7599983215332031
 10
-4.5
 20
3.1999999999999984
 30
0.7599983215332031
 10
-6.0
 20
3.1999999999999984
 30
0.23999786376953125
 10
-6.0
 20
3.1999999999999984
 30
0.23999786376953125
 10
-4.5
 20
3.1999999999999984
 30
0.7599983215332031
 10
-4.5
 20
3.9999999999999982
 30
0.7599983215332031
 10
-6.0
 20
3.9999999999999982
 30
0.23999786376953125
 10
-4.5
 20
-4.0
 30
0.7599983215332031
 10
-3.0
 20
-4.0
 30
1.2399978637695312
 10
-3.0
 20
-3.2
 30
1.2399978637695312
 10
-4.5
 20
-3.2
 30
0.7599983215332031
 10
-4.5
 20
-3.2
 30
0.7599983215332031
 10
-3.0
 20
-3.2
 30
1.2399978637695312
 10
-3.0
 20
-2.4000000000000004
 30
1.2399978637695312
 10
-4.5
 20
-2.4000000000000004
 30
0.7599983215332031
 10
-4.5
 20
-2.4000000000000004
 30
0.7599983215332031
 10
-3.0
 20
-2.4000000000000004
 30
1.2399978637695312
 10
-3.0
 20
-1.6000000000000005
 30
1.2399978637695312
 10
-4.5
 20
-1.6000000000000005
 30
0.7599983215332031
 10
-4.5
 20
-1.6000000000000005
 30
0.7599983215332031
 10
-3.0
 20
-1.6000000000000005
 30
1.2399978637695312
 10
-3.0
 20
-0.8000000000000007
 30
1.2399978637695312
 10
-4.5
 20
-0.8000000000000007
 30
0.7599983215332031
 10
-4.5
 20
-0.8000000000000007
 30
0.7599983215332031
 10
-3.0
 20
-0.8000000000000007
 30
1.2399978637695312
 10
-3.0
 20
-8.881784197001252e-16
 30
1.2399978637695312
 10
-4.5
 20
-8.881784197001252e-16
 30
0.7599983215332031
 10
-4.5
 20
-8.881784197001252e-16
 30
0.7599983215332031
 10
-3.0
 20
-8.881784197001252e-16
 30
1.2399978637695312
 10
-3.0
 20
0.7999999999999989
 30
1.2399978637695312
 10
-4.5
 20
0.7999999999999989
 30
0.7599983215332031
 10
-4.5
 20
0.7999999999999989
 30
0.7599983215332031
 10
-3.0
 20
0.7999999999999989
 30
1.2399978637695312
 10
-3.0
 20
1.5999999999999988
 30
1.2399978637695312
 10
-4.5
 20
1.5999999999999988
 30
0.7599983215332031
 10
-4.5
 20
1.5999999999999988
 30
0.7599983215332031
 10
-3.0
 20
1.5999999999999988
 30
1.2399978637695312
 10
-3.0
 20
2.3999999999999986
 30
1.2399978637695312
 10
-4.5
 20
2.3999999999999986
 30
0.7599983215332031
 10
-4.5
 20
2.3999999999999986
 30
0.7599983215332031
 10
-3.0
 20
2.3999999999999986
 30
1.2399978637695312
 10
-3.0
 20
3.1999999999999984
 30
1.2399978637695312
 10
-4.5
 20
3.1999999999999984
 30
0.7599983215332031
 10
-4.5
 20
3.1999999999999984
 30
0.7599983215332031
 10
-3.0
 20
3.1999999999999984
 30
1.2399978637695312
 10
-3.0
 20
3.9999999999999982
 30
1.2399978637695312
 10
-4.5
 20
3.9999999999999982
 30
0.7599983215332031
 10
-3.0
 20
-4.0
 30
1.2399978637695312
 10
-1.5
 20
-4.0
 30
0.8600006103515625
 10
-1.5
 20
-3.2
 30
0.8600006103515625
 10
-3.0
 20
-3.2
 30
1.2399978637695312
 10
-3.0
 20
-3.2
 30
1.2399978637695312
 10
-1.5
 20
-3.2
 30
0.8600006103515625
 10
-1.5
 20
-2.4000000000000004
 30
0.8600006103515625
 10
-3.0
 20
-2.4000000000000004
 30
1.2399978637695312
 10
-3.0
 20
-2.4000000000000004
 30
1.2399978637695312
 10
-1.5
 20
-2.4000000000000004
 30
0.8600006103515625
 10
-1.5
 20
-1.6000000000000005
 30
0.8600006103515625
 10
-3.0
 20
-1.6000000000000005
 30
1.2399978637695312
 10
-3.0
 20
-1.6000000000000005
 30
1.2399978637695312
 10
-1.5
 20
-1.6000000000000005
 30
0.8600006103515625
 10
-1.5
 20
-0.8000000000000007
 30
0.8600006103515625
 10
-3.0
 20
-0.8000000000000007
 30
1.2399978637695312
 10
-3.0
 20
-0.8000000000000007
 30
1.2399978637695312
 10
-1.5
 20
-0.8000000000000007
 30
0.8600006103515625
 10
-1.5
 20
-8.881784197001252e-16
 30
0.8600006103515625
 10
-3.0
 20
-8.881784197001252e-16
 30
1.2399978637695312
 10
-3.0
 20
-8.881784197001252e-16
 30
1.2399978637695312
 10
-1.5
 20
-8.881784197001252e-16
 30
0.8600006103515625
 10
-1.5
 20
0.7999999999999989
 30
0.8600006103515625
 10
-3.0
 20
0.7999999999999989
 30
1.2399978637695312
 10
-3.0
 20
0.7999999999999989
 30
1.2399978637695312
 10
-1.5
 20
0.7999999999999989
 30
0.8600006103515625
 10
-1.5
 20
1.5999999999999988
 30
0.8600006103515625
 10
-3.0
 20
1.5999999999999988
 30
1.2399978637695312
 10
-3.0
 20
1.5999999999999988
 30
1.2399978637695312
 10
-1.5
 20
1.5999999999999988
 30
0.8600006103515625
 10
-1.5
 20
2.3999999999999986
 30
0.8600006103515625
 10
-3.0
 20
2.3999999999999986
 30
1.2399978637695312
 10
-3.0
 20
2.3999999999999986
 30
1.2399978637695312
 10
-1.5
 20
2.3999999999999986
 30
0.8600006103515625
 10
-1.5
 20
3.1999999999999984
 30
0.8600006103515625
 10
-3.0
 20
3.1999999999999984
 30
1.2399978637695312
 10
-3.0
 20
3.1999999999999984
 30
1.2399978637695312
 10
-1.5
 20
3.1999999999999984
 30
0.8600006103515625
 10
-1.5
 20
3.9999999999999982
 30
0.8600006103515625
 10
-3.0
 20
3.9999999999999982
 30
1.2399978637695312
 10
-1.5
 20
-4.0
 30
0.8600006103515625
 10
0.0
 20
-4.0
 30
0.4399986267089844
 10
0.0
 20
-3.2
 30
0.4399986267089844
 10
-1.5
 20
-3.2
 30
0.8600006103515625
 10
-1.5
 20
-3.2
 30
0.8600006103515625
 10
0.0
 20
-3.2
 30
0.4399986267089844
 10
0.0
 20
-2.4000000000000004
 30
0.4399986267089844
 10
-1.5
 20
-2.4000000000000004
 30
0.8600006103515625
 10
-1.5
 20
-2.4000000000000004
 30
0.8600006103515625
 10
0.0
 20
-2.4000000000000004
 30
0.4399986267089844
 10
0.0
 20
-1.6000000000000005
 30
0.4399986267089844
 10
-1.5
 20
-1.6000000000000005
 30
0.8600006103515625
 10
-1.5
 20
-1.6000000000000005
 30
0.8600006103515625
 10
0.0
 20
-1.6000000000000005
 30
0.4399986267089844
 10
0.0
 20
-0.8000000000000007
 30
0.4399986267089844
 10
-1.5
 20
-0.8000000000000007
 30
0.8600006103515625
 10
-1.5
 20
-0.8000000000000007
 30
0.8600006103515625
 10
0.0
 20
-0.8000000000000007
 30
0.4399986267089844
 10
0.0
 20
-8.881784197001252e-16
 30
0.4399986267089844
 10
-1.5
 20
-8.881784197001252e-16
 30
0.8600006103515625
 10
-1.5
 20
-8.881784197001252e-16
 30
0.8600006103515625
 10
0.0
 20
-8.881784197001252e-16
 30
0.4399986267089844
 10
0.0
 20
0.7999999999999989
 30
0.4399986267089844
 10
-1.5
 20
0.7999999999999989
 30
0.8600006103515625
 10
-1.5
 20
0.7999999999999989
 30
0.8600006103515625
 10
0.0
 20
0.7999999999999989
 30
0.4399986267089844
 10
0.0
 20
1.5999999999999988
 30
0.4399986267089844
 10
-1.5
 20
1.5999999999999988
 30
0.8600006103515625
 10
-1.5
 20
1.5999999999999988
 30
0.8600006103515625
 10
0.0
 20
1.5999999999999988
 30
0.4399986267089844
 10
0.0
 20
2.3999999999999986
 30
0.4399986267089844
 10
-1.5
 20
2.3999999999999986
 30
0.8600006103515625
 10
-1.5
 20
2.3999999999999986
 30
0.8600006103515625
 10
0.0
 20
2.3999999999999986
 30
0.4399986267089844
 10
0.0
 20
3.1999999999999984
 30
0.4399986267089844
 10
-1.5
 20
3.1999999999999984
 30
0.8600006103515625
 10
-1.5
 20
3.1999999999999984
 30
0.8600006103515625
 10
0.0
 20
3.1999999999999984
 30
0.4399986267089844
 10
0.0
 20
3.9999999999999982
 30
0.4399986267089844
 10
-1.5
 20
3.9999999999999982
 30
0.8600006103515625
 10
0.0
 20
-4.0
 30
0.4399986267089844
 10
1.5
 20
-4.0
 30
0.0
 10
1.5
 20
-3.2
 30
0.0
 10
0.0
 20
-3.2
 30
0.4399986267089844
 10
0.0
 20
-3.2
 30
0.4399986267089844
 10
1.5
 20
-3.2
 30
0.0
 10
1.5
 20
-2.4000000000000004
 30
0.0
 10
0.0
 20
-2.4000000000000004
 30
0.4399986267089844
 10
0.0
 20
-2.4000000000000004
 30
0.4399986267089844
 10
1.5
 20
-2.4000000000000004
 30
0.0
 10
1.5
 20
-1.6000000000000005
 30
0.0
 10
0.0
 20
-1.6000000000000005
 30
0.4399986267089844
 10
0.0
 20
-1.6000000000000005
 30
0.4399986267089844
 10
1.5
 20
-1.6000000000000005
 30
0.0
 10
1.5
 20
-0.8000000000000007
 30
0.0
 10
0.0
 20
-0.8000000000000007
 30
0.4399986267089844
 10
0.0
 20
-0.8000000000000007
 30
0.4399986267089844
 10
1.5
 20
-0.8000000000000007
 30
0.0
 10
1.5
 20
-8.881784197001252e-16
 30
0.0
 10
0.0
 20
-8.881784197001252e-16
 30
0.4399986267089844
 10
0.0
 20
-8.881784197001252e-16
 30
0.4399986267089844
 10
1.5
 20
-8.881784197001252e-16
 30
0.0
 10
1.5
 20
0.7999999999999989
 30
0.0
 10
0.0
 20
0.7999999999999989
 30
0.4399986267089844
 10
0.0
 20
0.7999999999999989
 30
0.4399986267089844
 10
1.5
 20
0.7999999999999989
 30
0.0
 10
1.5
 20
1.5999999999999988
 30
0.0
 10
0.0
 20
1.5999999999999988
 30
0.4399986267089844
 10
0.0
 20
1.5999999999999988
 30
0.4399986267089844
 10
1.5
 20
1.5999999999999988
 30
0.0
 10
1.5
 20
2.3999999999999986
 30
0.0
 10
0.0
 20
2.3999999999999986
 30
0.4399986267089844
 10
0.0
 20
2.3999999999999986
 30
0.4399986267089844
 10
1.5
 20
2.3999999999999986
 30
0.0
 10
1.5
 20
3.1999999999999984
 30
0.0
 10
0.0
 20
3.1999999999999984
 30
0.4399986267089844
 10
0.0
 20
3.1999999999999984
 30
0.4399986267089844
 10
1.5
 20
3.1999999999999984
 30
0.0
 10
1.5
 20
3.9999999999999982
 30
0.0
 10
0.0
 20
3.9999999999999982
 30
0.4399986267089844
 93
350
 90
4
 90
0
 90
1
 90
2
 90
3
 90
4
 90
4
 90
5
 90
6
 90
7
 90
4
 90
8
 90
9
 90
10
 90
11
 90
4
 90
12
 90
13
 90
14
 90
15
 90
4
 90
16
 90
17
 90
18
 90
19
 90
4
 90
20
 90
21
 90
22
 90
23
 90
4
 90
24
 90
25
 90
26
 90
27
 90
4
 90
28
 90
29
 90
30
 90
31
 90
4
 90
32
 90
33
 90
34
 90
35
 90
4
 90
36
 90
37
 90
38
 90
39
 90
4
 90
40
 90
41
 90
42
 90
43
 90
4
 90
44
 90
45
 90
46
 90
47
 90
4
 90
48
 90
49
 90
50
 90
51
 90
4
 90
52
 90
53
 90
54
 90
55
 90
4
 90
56
 90
57
 90
58
 90
59
 90
4
 90
60
 90
61
 90
62
 90
63
 90
4
 90
64
 90
65
 90
66
 90
67
 90
4
 90
68
 90
69
 90
70
 90
71
 90
4
 90
72
 90
73
 90
74
 90
75
 90
4
 90
76
 90
77
 90
78
 90
79
 90
4
 90
80
 90
81
 90
82
 90
83
 90
4
 90
84
 90
85
 90
86
 90
87
 90
4
 90
88
 90
89
 90
90
 90
91
 90
4
 90
92
 90
93
 90
94
 90
95
 90
4
 90
96
 90
97
 90
98
 90
99
 90
4
 90
100
 90
101
 90
102
 90
103
 90
4
 90
104
 90
105
 90
106
 90
107
 90
4
 90
108
 90
109
 90
110
 90
111
 90
4
 90
112
 90
113
 90
114
 90
115
 90
4
 90
116
 90
117
 90
118
 90
119
 90
4
 90
120
 90
121
 90
122
 90
123
 90
4
 90
124
 90
125
 90
126
 90
127
 90
4
 90
128
 90
129
 90
130
 90
131
 90
4
 90
132
 90
133
 90
134
 90
135
 90
4
 90
136
 90
137
 90
138
 90
139
 90
4
 90
140
 90
141
 90
142
 90
143
 90
4
 90
144
 90
145
 90
146
 90
147
 90
4
 90
148
 90
149
 90
150
 90
151
 90
4
 90
152
 90
153
 90
154
 90
155
 90
4
 90
156
 90
157
 90
158
 90
159
 90
4
 90
160
 90
161
 90
162
 90
163
 90
4
 90
164
 90
165
 90
166
 90
167
 90
4
 90
168
 90
169
 90
170
 90
171
 90
4
 90
172
 90
173
 90
174
 90
175
 90
4
 90
176
 90
177
 90
178
 90
179
 90
4
 90
180
 90
181
 90
182
 90
183
 90
4
 90
184
 90
185
 90
186
 90
187
 90
4
 90
188
 90
189
 90
190
 90
191
 90
4
 90
192
 90
193
 90
194
 90
195
 90
4
 90
196
 90
197
 90
198
 90
199
 90
4
 90
200
 90
201
 90
202
 90
203
 90
4
 90
204
 90
205
 90
206
 90
207
 90
4
 90
208
 90
209
 90
210
 90
211
 90
4
 90
212
 90
213
 90
214
 90
215
 90
4
 90
216
 90
217
 90
218
 90
219
 90
4
 90
220
 90
221
 90
222
 90
223
 90
4
 90
224
 90
225
 90
226
 90
227
 90
4
 90
228
 90
229
 90
230
 90
231
 90
4
 90
232
 90
233
 90
234
 90
235
 90
4
 90
236
 90
237
 90
238
 90
239
 90
4
 90
240
 90
241
 90
242
 90
243
 90
4
 90
244
 90
245
 90
246
 90
247
 90
4
 90
248
 90
249
 90
250
 90
251
 90
4
 90
252
 90
253
 90
254
 90
255
 90
4
 90
256
 90
257
 90
258
 90
259
 90
4
 90
260
 90
261
 90
262
 90
263
 90
4
 90
264
 90
265
 90
266
 90
267
 90
4
 90
268
 90
269
 90
270
 90
271
 90
4
 90
272
 90
273
 90
274
 90
275
 90
4
 90
276
 90
277
 90
278
 90
279
 94
0
 95
0
 90
0
  0
MESH
  5
34
330
17
100
AcDbEntity
  8
CRACK_C04
100
AcDbSubDMesh
 71
2
 72
0
 91
0
 92
24
 10
0.9180651962280899
 20
2.0749317747645004
 30
0.025
 10
1.0313985295614232
 20
2.1302588665723055
 30
0.025
 10
1.0752681371052433
 20
2.0403953170433042
 30
0.025
 10
0.96193480377191
 20
1.9850682252354994
 30
0.025
 10
1.08519495215696
 20
2.1238606777548448
 30
0.025
 10
1.1985282854902934
 20
2.0301506484925653
 30
0.025
 10
1.13480504784304
 20
1.953083476598485
 30
0.025
 10
1.0214717145097065
 20
2.046793505860765
 30
0.025
 10
1.1509465495044136
 20
2.039081553656302
 30
0.025
 10
1.2642798828377468
 20
2.076617261649686
 30
0.025
 10
1.2957201171622532
 20
1.9816882794281319
 30
0.025
 10
1.18238678382892
 20
1.944152571434748
 30
0.025
 10
1.2744593099993702
 20
2.078844829807135
 30
0.025
 10
1.3877926433327035
 20
2.0914815543861778
 30
0.025
 10
1.3988740233339632
 20
1.9920974358497252
 30
0.025
 10
1.2855406900006299
 20
1.9794607112706826
 30
0.025
 10
1.3844492649482982
 20
2.090993898670175
 30
0.025
 10
1.491115931614965
 20
2.1102530277858165
 30
0.025
 10
1.508884068385035
 20
2.01184422068137
 30
0.025
 10
1.4022174017183684
 20
1.9925850915657286
 30
0.025
 10
1.55
 20
2.0610486242335933
 30
0.025
 10
1.55
 20
2.03
 30
0.025
 10
1.45
 20
2.03
 30
0.025
 10
1.45
 20
2.0610486242335933
 30
0.025
 93
30
 90
4
 90
0
 90
1
 90
2
 90
3
 90
4
 90
4
 90
5
 90
6
 90
7
 90
4
 90
8
 90
9
 90
10
 90
11
 90
4
 90
12
 90
13
 90
14
 90
15
 90
4
 90
16
 90
17
 90
18
 90
19
 90
4
 90
20
 90
21
 90
22
 90
23
 94
0
 95
0
 90
0
  0
MESH
  5
36
330
17
100
AcDbEntity
  8
CRACK_C03
100
AcDbSubDMesh
 71
2
 72
0
 91
0
 92
32
 10
-4.268348713251775
 20
-3.330112264838365
 30
0.7849983215332031
 10
-4.049598713251775
 20
-3.3154286753458346
 30
0.7849983215332031
 10
-4.042901286748227
 20
-3.415204145669104
 30
0.7849983215332031
 10
-4.261651286748227
 20
-3.4298877351616346
 30
0.7849983215332031
 10
-4.050122076804972
 20
-3.315466565761308
 30
0.7849983215332031
 10
-3.8313720768049717
 20
-3.2984752028914612
 30
0.7849983215332031
 10
-3.8236279231950285
 20
-3.3981748923837842
 30
0.7849983215332031
 10
-4.042377923195029
 20
-3.415166255253631
 30
0.7849983215332031
 10
-3.8235105977046104
 20
-3.2984844550516037
 30
0.7849983215332031
 10
-3.6047605977046104
 20
-3.3159939128416633
 30
1.2649978637695312
 10
-3.61273940229539
 20
-3.4156750980137014
 30
1.2649978637695312
 10
-3.83148940229539
 20
-3.3981656402236418
 30
0.7849983215332031
 10
-3.595434806512738
 20
-3.3176400490826135
 30
1.2649978637695312
 10
-3.376684806512738
 20
-3.3780764311113662
 30
1.2649978637695312
 10
-3.4033151934872623
 20
-3.474465343801504
 30
1.2649978637695312
 10
-3.6220651934872623
 20
-3.4140289617727513
 30
1.2649978637695312
 10
-3.3969681688223154
 20
-3.3767588220252325
 30
1.2649978637695312
 10
-3.1782181688223154
 20
-3.3459726506828265
 30
1.2649978637695312
 10
-3.164281831177685
 20
-3.444996781545232
 30
1.2649978637695312
 10
-3.383031831177685
 20
-3.475782952887638
 30
1.2649978637695312
 10
-3.1619931764420106
 20
-3.346349075102476
 30
1.2649978637695312
 10
-2.9432431764420106
 20
-3.3875601005744755
 30
1.2649978637695312
 10
-2.9617568235579896
 20
-3.485831382597582
 30
1.2649978637695312
 10
-3.1805068235579896
 20
-3.4446203571255825
 30
1.2649978637695312
 10
-2.9685197042806006
 20
-3.3893315243459847
 30
1.2649978637695312
 10
-2.7497697042806006
 20
-3.3153450739076438
 30
1.2649978637695312
 10
-2.7177302957193996
 20
-3.410073508387732
 30
1.2649978637695312
 10
-2.9364802957193996
 20
-3.484059958826073
 30
1.2649978637695312
 10
-2.7298101266491757
 20
-3.31286475887002
 30
1.2649978637695312
 10
-2.5110601266491757
 20
-3.330155467722332
 30
1.2649978637695312
 10
-2.5189398733508246
 20
-3.429844532277668
 30
1.2649978637695312
 10
-2.7376898733508246
 20
-3.412553823425356
 30
1.2649978637695312
 93
40
 90
4
 90
0
 90
1
 90
2
 90
3
 90
4
 90
4
 90
5
 90
6
 90
7
 90
4
 90
8
 90
9
 90
10
 90
11
 90
4
 90
12
 90
13
 90
14
 90
15
 90
4
 90
16
 90
17
 90
18
 90
19
 90
4
 90
20
 90
21
 90
22
 90
23
 90
4
 90
24
 90
25
 90
26
 90
27
 90
4
 90
28
 90
29
 90
30
 90
31
 94
0
 95
0
 90
0
  0
MESH
  5
38
330
17
100
AcDbEntity
  8
CRACK_C01
100
AcDbSubDMesh
 71
2
 72
0
 91
0
 92
24
 10
0.8516244247696457
 20
-3.293499051246737
 30
0.025
 10
1.0616244247696458
 20
-3.21051427562743
 30
0.025
 10
1.0983755752303543
 20
-3.303516173133956
 30
0.025
 10
0.8883755752303543
 20
-3.386500948753263
 30
0.025
 10
1.096508682455407
 20
-3.209819213918086
 30
0.025
 10
1.3065086824554069
 20
-3.2832750692256467
 30
0.025
 10
1.2734913175445932
 20
-3.377667090150861
 30
0.025
 10
1.0634913175445933
 20
-3.3042112348433004
 30
0.025
 10
1.3041179738120492
 20
-3.2825056461403093
 30
0.025
 10
1.5141179738120492
 20
-3.3443162935426067
 30
0.025
 10
1.4858820261879508
 20
-3.440247160638496
 30
0.025
 10
1.2758820261879509
 20
-3.3784365132361986
 30
0.025
 10
1.55
 20
-3.3922817270905514
 30
0.025
 10
1.55
 20
-3.421265831355473
 30
0.025
 10
1.45
 20
-3.421265831355473
 30
0.025
 10
1.45
 20
-3.3922817270905514
 30
0.025
 10
1.45
 20
-3.421265831355473
 30
0.025
 10
1.45
 20
-3.290771002656181
 30
0.025
 10
1.55
 20
-3.290771002656181
 30
0.025
 10
1.55
 20
-3.421265831355473
 30
0.025
 10
1.55
 20
-3.290771002656181
 30
0.025
 10
1.55
 20
-3.34
 30
0.025
 10
1.45
 20
-3.34
 30
0.025
 10
1.45
 20
-3.290771002656181
 30
0.025
 93
30
 90
4
 90
0
 90
1
 90
2
 90
3
 90
4
 90
4
 90
5
 90
6
 90
7
 90
4
 90
8
 90
9
 90
10
 90
11
 90
4
 90
12
 90
13
 90
14
 90
15
 90
4
 90
16
 90
17
 90
18
 90
19
 90
4
 90
20
 90
21
 90
22
 90
23
 94
0
 95
0
 90
0
  0
MESH
  5
3A
330
17
100
AcDbEntity
  8
CRACK_C02
100
AcDbSubDMesh
 71
2
 72
0
 91
0
 92
24
 10
-7.842987233875074
 20
-3.097924942468488
 30
0.06499710083007812
 10
-7.742987233875074
 20
-3.1621263190315374
 30
0.06499710083007812
 10
-7.797012766124927
 20
-3.2462764340945616
 30
0.06499710083007812
 10
-7.897012766124926
 20
-3.182075057531512
 30
0.06499710083007812
 10
-7.779650940039154
 20
-3.1551416236451977
 30
0.06499710083007812
 10
-7.679650940039154
 20
-3.1354698163792416
 30
0.06499710083007812
 10
-7.660349059960846
 20
-3.233589322214945
 30
0.06499710083007812
 10
-7.760349059960847
 20
-3.2532611294809013
 30
0.06499710083007812
 10
-7.708527715715972
 20
-3.1526608523208917
 30
0.06499710083007812
 10
-7.608527715715972
 20
-3.0317657571567436
 30
0.06499710083007812
 10
-7.531472284284028
 20
-3.095503191109147
 30
0.06499710083007812
 10
-7.631472284284028
 20
-3.216398286273295
 30
0.06499710083007812
 10
-7.544392620793736
 20
-3.0206896009792548
 30
0.06499710083007812
 10
-7.444392620793736
 20
-3.0803180905421916
 30
0.06499710083007812
 10
-7.495607379206265
 20
-3.1662078368495727
 30
0.06499710083007812
 10
-7.595607379206265
 20
-3.106579347286636
 30
0.06499710083007812
 10
-7.434731457500371
 20
-3.0878210406392554
 30
0.06499710083007812
 10
-7.334731457500371
 20
-3.187331844393554
 30
0.06499710083007812
 10
-7.40526854249963
 20
-3.2582156905068076
 30
0.06499710083007812
 10
-7.50526854249963
 20
-3.158704886752509
 30
0.06499710083007812
 10
-7.40188184812784
 20
-3.1842569171122657
 30
0.06499710083007812
 10
-7.301881848127841
 20
-3.101483149662085
 30
0.06499710083007812
 10
-7.23811815187216
 20
-3.1785168503379153
 30
0.06499710083007812
 10
-7.33811815187216
 20
-3.261290617788096
 30
0.06499710083007812
 93
30
 90
4
 90
0
 90
1
 90
2
 90
3
 90
4
 90
4
 90
5
 90
6
 90
7
 90
4
 90
8
 90
9
 90
10
 90
11
 90
4
 90
12
 90
13
 90
14
 90
15
 90
4
 90
16
 90
17
 90
18
 90
19
 90
4
 90
20
 90
21
 90
22
 90
23
 94
0
 95
0
 90
0
  0
TEXT
  5
3B
330
17
100
AcDbEntity
  8
ANNOT
100
AcDbText
 10
-9.0
 20
-4.0
 30
0.6787399974803201
 40
0.45
  1
Avon Street | CurbRisk 23.1 | PCI 94.9
 11
-9.0
 21
-4.0
 31
0.6787399974803201
100
AcDbText
  0
TEXT
  5
3C
330
17
100
AcDbEntity
  8
ANNOT
100
AcDbText
 10
-9.0
 20
-4.0
 30
-0.021260002519679855
 40
0.35
  1
Ponding 1.6 in @ 2.0" storm (true depth; Z exaggerated 2x)
 11
-9.0
 21
-4.0
 31
-0.021260002519679855
100
AcDbText
  0
TEXT
  5
3D
330
17
100
AcDbEntity
  8
ANNOT
100
AcDbText
 10
-9.0
 20
-4.0
 30
-0.6212600025196799
 40
0.3
  1
Catchment 556 sqft | Volume 84 cf
 11
-9.0
 21
-4.0
 31
-0.6212600025196799
100
AcDbText
  0
TEXT
  5
3E
330
17
100
AcDbEntity
  8
ANNOT
100
AcDbText
 10
-9.0
 20
-4.0
 30
-1.2212600025196798
 40
0.26
  1
Longitudinal profile: LiDAR-measured | cross-street: extruded
 11
-9.0
 21
-4.0
 31
-1.2212600025196798
100
AcDbText
  0
ENDSEC
  0
SECTION
  2
OBJECTS
  0
DICTIONARY
  5
A
330
0
100
AcDbDictionary
281
1
  3
ACAD_COLOR
350
B
  3
ACAD_GROUP
350
C
  3
ACAD_LAYOUT
350
D
  3
ACAD_MATERIAL
350
E
  3
ACAD_MLEADERSTYLE
350
F
  3
ACAD_MLINESTYLE
350
10
  3
ACAD_PLOTSETTINGS
350
11
  3
ACAD_PLOTSTYLENAME
350
12
  3
ACAD_SCALELIST
350
14
  3
ACAD_TABLESTYLE
350
15
  3
ACAD_VISUALSTYLE
350
16
  3
EZDXF_META
350
2D
  0
DICTIONARY
  5
B
330
A
100
AcDbDictionary
281
1
  0
DICTIONARY
  5
C
330
A
100
AcDbDictionary
281
1
  0
DICTIONARY
  5
D
330
A
100
AcDbDictionary
281
1
  3
Model
350
1A
  3
Layout1
350
1E
  0
DICTIONARY
  5
E
330
A
100
AcDbDictionary
281
1
  3
ByBlock
350
1F
  3
ByLayer
350
20
  3
Global
350
21
  0
DICTIONARY
  5
F
330
A
100
AcDbDictionary
281
1
  3
Standard
350
2C
  0
DICTIONARY
  5
10
330
A
100
AcDbDictionary
281
1
  3
Standard
350
22
  0
DICTIONARY
  5
11
330
A
100
AcDbDictionary
281
1
  0
ACDBDICTIONARYWDFLT
  5
12
330
A
100
AcDbDictionary
281
1
  3
Normal
350
13
100
AcDbDictionaryWithDefault
340
13
  0
ACDBPLACEHOLDER
  5
13
330
12
  0
DICTIONARY
  5
14
330
A
100
AcDbDictionary
281
1
  0
DICTIONARY
  5
15
330
A
100
AcDbDictionary
281
1
  0
DICTIONARY
  5
16
330
A
100
AcDbDictionary
281
1
  0
LAYOUT
  5
1A
330
D
100
AcDbPlotSettings
  1

  4
A3
  6

 40
7.5
 41
20.0
 42
7.5
 43
20.0
 44
420.0
 45
297.0
 46
0.0
 47
0.0
 48
0.0
 49
0.0
140
0.0
141
0.0
142
1.0
143
1.0
 70
1024
 72
1
 73
0
 74
5
  7

 75
16
 76
0
 77
2
 78
300
147
1.0
148
0.0
149
0.0
100
AcDbLayout
  1
Model
 70
1
 71
0
 10
0.0
 20
0.0
 11
420.0
 21
297.0
 12
0.0
 22
0.0
 32
0.0
 14
1e+20
 24
1e+20
 34
1e+20
 15
-1e+20
 25
-1e+20
 35
-1e+20
146
0.0
 13
0.0
 23
0.0
 33
0.0
 16
1.0
 26
0.0
 36
0.0
 17
0.0
 27
1.0
 37
0.0
 76
1
330
17
  0
LAYOUT
  5
1E
330
D
100
AcDbPlotSettings
  1

  4
A3
  6

 40
7.5
 41
20.0
 42
7.5
 43
20.0
 44
420.0
 45
297.0
 46
0.0
 47
0.0
 48
0.0
 49
0.0
140
0.0
141
0.0
142
1.0
143
1.0
 70
0
 72
1
 73
0
 74
5
  7

 75
16
 76
0
 77
2
 78
300
147
1.0
148
0.0
149
0.0
100
AcDbLayout
  1
Layout1
 70
1
 71
1
 10
0.0
 20
0.0
 11
420.0
 21
297.0
 12
0.0
 22
0.0
 32
0.0
 14
1e+20
 24
1e+20
 34
1e+20
 15
-1e+20
 25
-1e+20
 35
-1e+20
146
0.0
 13
0.0
 23
0.0
 33
0.0
 16
1.0
 26
0.0
 36
0.0
 17
0.0
 27
1.0
 37
0.0
 76
1
330
1B
  0
MATERIAL
  5
1F
102
{ACAD_REACTORS
330
E
102
}
330
E
100
AcDbMaterial
  1
ByBlock
  2

 70
0
 40
1.0
 71
1
 41
1.0
 91
-1023410177
 42
1.0
 72
1
  3

 73
1
 74
1
 75
1
 44
0.5
 73
0
 45
1.0
 46
1.0
 77
1
  4

 78
1
 79
1
170
1
 48
1.0
171
1
  6

172
1
173
1
174
1
140
1.0
141
1.0
175
1
  7

176
1
177
1
178
1
143
1.0
179
1
  8

270
1
271
1
272
1
145
1.0
146
1.0
273
1
  9

274
1
275
1
276
1
 42
1.0
 72
1
  3

 73
1
 74
1
 75
1
 94
63
  0
MATERIAL
  5
20
102
{ACAD_REACTORS
330
E
102
}
330
E
100
AcDbMaterial
  1
ByLayer
  2

 70
0
 40
1.0
 71
1
 41
1.0
 91
-1023410177
 42
1.0
 72
1
  3

 73
1
 74
1
 75
1
 44
0.5
 73
0
 45
1.0
 46
1.0
 77
1
  4

 78
1
 79
1
170
1
 48
1.0
171
1
  6

172
1
173
1
174
1
140
1.0
141
1.0
175
1
  7

176
1
177
1
178
1
143
1.0
179
1
  8

270
1
271
1
272
1
145
1.0
146
1.0
273
1
  9

274
1
275
1
276
1
 42
1.0
 72
1
  3

 73
1
 74
1
 75
1
 94
63
  0
MATERIAL
  5
21
102
{ACAD_REACTORS
330
E
102
}
330
E
100
AcDbMaterial
  1
Global
  2

 70
0
 40
1.0
 71
1
 41
1.0
 91
-1023410177
 42
1.0
 72
1
  3

 73
1
 74
1
 75
1
 44
0.5
 73
0
 45
1.0
 46
1.0
 77
1
  4

 78
1
 79
1
170
1
 48
1.0
171
1
  6

172
1
173
1
174
1
140
1.0
141
1.0
175
1
  7

176
1
177
1
178
1
143
1.0
179
1
  8

270
1
271
1
272
1
145
1.0
146
1.0
273
1
  9

274
1
275
1
276
1
 42
1.0
 72
1
  3

 73
1
 74
1
 75
1
 94
63
  0
MLINESTYLE
  5
22
102
{ACAD_REACTORS
330
10
102
}
330
10
100
AcDbMlineStyle
  2
Standard
 70
0
  3

 62
256
 51
90.0
 52
90.0
 71
2
 49
0.5
 62
256
  6
BYLAYER
 49
-0.5
 62
256
  6
BYLAYER
  0
MLEADERSTYLE
  5
2C
102
{ACAD_REACTORS
330
F
102
}
330
F
100
AcDbMLeaderStyle
179
2
170
2
171
1
172
0
 90
2
 40
0.0
 41
0.0
173
1
 91
-1056964608
 92
-2
290
1
 42
2.0
291
1
 43
8.0
  3
Standard
 44
4.0
300

342
29
174
1
175
1
176
0
178
1
 93
-1056964608
 45
4.0
292
0
297
0
 46
4.0
 94
-1056964608
 47
1.0
 49
1.0
140
1.0
294
1
141
0.0
177
0
142
1.0
295
0
296
0
143
3.75
271
0
272
9
273
9
  0
DICTIONARY
  5
2D
330
A
100
AcDbDictionary
280
1
281
1
  3
CREATED_BY_EZDXF
350
2E
  3
WRITTEN_BY_EZDXF
350
41
  0
DICTIONARYVAR
  5
2E
330
2D
100
DictionaryVariables
280
0
  1
1.4.4 @ 2026-06-13T21:21:15.936134+00:00
  0
DICTIONARYVAR
  5
41
330
2D
100
DictionaryVariables
280
0
  1
1.4.4 @ 2026-06-13T21:21:15.937490+00:00
  0
ENDSEC
  0
EOF
