  0
SECTION
  2
HEADER
  9
$ACADVER
  1
AC1024
  9
$ACADMAINTVER
 70
6
  9
$DWGCODEPAGE
  3
ANSI_1252
  9
$LASTSAVEDBY
  1
ezdxf
  9
$INSBASE
 10
0.0
 20
0.0
 30
0.0
  9
$EXTMIN
 10
1e+20
 20
1e+20
 30
1e+20
  9
$EXTMAX
 10
-1e+20
 20
-1e+20
 30
-1e+20
  9
$LIMMIN
 10
0.0
 20
0.0
  9
$LIMMAX
 10
420.0
 20
297.0
  9
$ORTHOMODE
 70
0
  9
$REGENMODE
 70
1
  9
$FILLMODE
 70
1
  9
$QTEXTMODE
 70
0
  9
$MIRRTEXT
 70
1
  9
$LTSCALE
 40
1.0
  9
$ATTMODE
 70
1
  9
$TEXTSIZE
 40
2.5
  9
$TRACEWID
 40
1.0
  9
$TEXTSTYLE
  7
Standard
  9
$CLAYER
  8
0
  9
$CELTYPE
  6
ByLayer
  9
$CECOLOR
 62
256
  9
$CELTSCALE
 40
1.0
  9
$DISPSILH
 70
0
  9
$DIMSCALE
 40
1.0
  9
$DIMASZ
 40
2.5
  9
$DIMEXO
 40
0.625
  9
$DIMDLI
 40
3.75
  9
$DIMRND
 40
0.0
  9
$DIMDLE
 40
0.0
  9
$DIMEXE
 40
1.25
  9
$DIMTP
 40
0.0
  9
$DIMTM
 40
0.0
  9
$DIMTXT
 40
2.5
  9
$DIMCEN
 40
2.5
  9
$DIMTSZ
 40
0.0
  9
$DIMTOL
 70
0
  9
$DIMLIM
 70
0
  9
$DIMTIH
 70
0
  9
$DIMTOH
 70
0
  9
$DIMSE1
 70
0
  9
$DIMSE2
 70
0
  9
$DIMTAD
 70
1
  9
$DIMZIN
 70
8
  9
$DIMBLK
  1

  9
$DIMASO
 70
1
  9
$DIMSHO
 70
1
  9
$DIMPOST
  1

  9
$DIMAPOST
  1

  9
$DIMALT
 70
0
  9
$DIMALTD
 70
3
  9
$DIMALTF
 40
0.03937007874
  9
$DIMLFAC
 40
1.0
  9
$DIMTOFL
 70
1
  9
$DIMTVP
 40
0.0
  9
$DIMTIX
 70
0
  9
$DIMSOXD
 70
0
  9
$DIMSAH
 70
0
  9
$DIMBLK1
  1

  9
$DIMBLK2
  1

  9
$DIMSTYLE
  2
ISO-25
  9
$DIMCLRD
 70
0
  9
$DIMCLRE
 70
0
  9
$DIMCLRT
 70
0
  9
$DIMTFAC
 40
1.0
  9
$DIMGAP
 40
0.625
  9
$DIMJUST
 70
0
  9
$DIMSD1
 70
0
  9
$DIMSD2
 70
0
  9
$DIMTOLJ
 70
0
  9
$DIMTZIN
 70
8
  9
$DIMALTZ
 70
0
  9
$DIMALTTZ
 70
0
  9
$DIMUPT
 70
0
  9
$DIMDEC
 70
2
  9
$DIMTDEC
 70
2
  9
$DIMALTU
 70
2
  9
$DIMALTTD
 70
3
  9
$DIMTXSTY
  7
Standard
  9
$DIMAUNIT
 70
0
  9
$DIMADEC
 70
0
  9
$DIMALTRND
 40
0.0
  9
$DIMAZIN
 70
0
  9
$DIMDSEP
 70
44
  9
$DIMATFIT
 70
3
  9
$DIMFRAC
 70
0
  9
$DIMLDRBLK
  1

  9
$DIMLUNIT
 70
2
  9
$DIMLWD
 70
-2
  9
$DIMLWE
 70
-2
  9
$DIMTMOVE
 70
0
  9
$DIMFXL
 40
1.0
  9
$DIMFXLON
 70
0
  9
$DIMJOGANG
 40
0.785398163397
  9
$DIMTFILL
 70
0
  9
$DIMTFILLCLR
 70
0
  9
$DIMARCSYM
 70
0
  9
$DIMLTYPE
  6

  9
$DIMLTEX1
  6

  9
$DIMLTEX2
  6

  9
$DIMTXTDIRECTION
 70
0
  9
$LUNITS
 70
2
  9
$LUPREC
 70
4
  9
$SKETCHINC
 40
1.0
  9
$FILLETRAD
 40
10.0
  9
$AUNITS
 70
0
  9
$AUPREC
 70
2
  9
$MENU
  1
.
  9
$ELEVATION
 40
0.0
  9
$PELEVATION
 40
0.0
  9
$THICKNESS
 40
0.0
  9
$LIMCHECK
 70
0
  9
$CHAMFERA
 40
0.0
  9
$CHAMFERB
 40
0.0
  9
$CHAMFERC
 40
0.0
  9
$CHAMFERD
 40
0.0
  9
$SKPOLY
 70
0
  9
$TDCREATE
 40
2461205.7230787035
  9
$TDUCREATE
 40
2458532.153996898
  9
$TDUPDATE
 40
2461205.7230787035
  9
$TDUUPDATE
 40
2458532.1544311
  9
$TDINDWG
 40
0.0
  9
$TDUSRTIMER
 40
0.0
  9
$USRTIMER
 70
1
  9
$ANGBASE
 50
0.0
  9
$ANGDIR
 70
0
  9
$PDMODE
 70
0
  9
$PDSIZE
 40
0.0
  9
$PLINEWID
 40
0.0
  9
$SPLFRAME
 70
0
  9
$SPLINETYPE
 70
6
  9
$SPLINESEGS
 70
8
  9
$HANDSEED
  5
43
  9
$SURFTAB1
 70
6
  9
$SURFTAB2
 70
6
  9
$SURFTYPE
 70
6
  9
$SURFU
 70
6
  9
$SURFV
 70
6
  9
$UCSBASE
  2

  9
$UCSNAME
  2

  9
$UCSORG
 10
0.0
 20
0.0
 30
0.0
  9
$UCSXDIR
 10
1.0
 20
0.0
 30
0.0
  9
$UCSYDIR
 10
0.0
 20
1.0
 30
0.0
  9
$UCSORTHOREF
  2

  9
$UCSORTHOVIEW
 70
0
  9
$UCSORGTOP
 10
0.0
 20
0.0
 30
0.0
  9
$UCSORGBOTTOM
 10
0.0
 20
0.0
 30
0.0
  9
$UCSORGLEFT
 10
0.0
 20
0.0
 30
0.0
  9
$UCSORGRIGHT
 10
0.0
 20
0.0
 30
0.0
  9
$UCSORGFRONT
 10
0.0
 20
0.0
 30
0.0
  9
$UCSORGBACK
 10
0.0
 20
0.0
 30
0.0
  9
$PUCSBASE
  2

  9
$PUCSNAME
  2

  9
$PUCSORG
 10
0.0
 20
0.0
 30
0.0
  9
$PUCSXDIR
 10
1.0
 20
0.0
 30
0.0
  9
$PUCSYDIR
 10
0.0
 20
1.0
 30
0.0
  9
$PUCSORTHOREF
  2

  9
$PUCSORTHOVIEW
 70
0
  9
$PUCSORGTOP
 10
0.0
 20
0.0
 30
0.0
  9
$PUCSORGBOTTOM
 10
0.0
 20
0.0
 30
0.0
  9
$PUCSORGLEFT
 10
0.0
 20
0.0
 30
0.0
  9
$PUCSORGRIGHT
 10
0.0
 20
0.0
 30
0.0
  9
$PUCSORGFRONT
 10
0.0
 20
0.0
 30
0.0
  9
$PUCSORGBACK
 10
0.0
 20
0.0
 30
0.0
  9
$USERI1
 70
0
  9
$USERI2
 70
0
  9
$USERI3
 70
0
  9
$USERI4
 70
0
  9
$USERI5
 70
0
  9
$USERR1
 40
0.0
  9
$USERR2
 40
0.0
  9
$USERR3
 40
0.0
  9
$USERR4
 40
0.0
  9
$USERR5
 40
0.0
  9
$WORLDVIEW
 70
1
  9
$SHADEDGE
 70
3
  9
$SHADEDIF
 70
70
  9
$TILEMODE
 70
1
  9
$MAXACTVP
 70
64
  9
$PINSBASE
 10
0.0
 20
0.0
 30
0.0
  9
$PLIMCHECK
 70
0
  9
$PEXTMIN
 10
1e+20
 20
1e+20
 30
1e+20
  9
$PEXTMAX
 10
-1e+20
 20
-1e+20
 30
-1e+20
  9
$PLIMMIN
 10
0.0
 20
0.0
  9
$PLIMMAX
 10
420.0
 20
297.0
  9
$UNITMODE
 70
0
  9
$VISRETAIN
 70
1
  9
$PLINEGEN
 70
0
  9
$PSLTSCALE
 70
1
  9
$TREEDEPTH
 70
3020
  9
$CMLSTYLE
  2
Standard
  9
$CMLJUST
 70
0
  9
$CMLSCALE
 40
20.0
  9
$PROXYGRAPHICS
 70
1
  9
$MEASUREMENT
 70
1
  9
$CELWEIGHT
370
-1
  9
$ENDCAPS
280
0
  9
$JOINSTYLE
280
0
  9
$LWDISPLAY
290
0
  9
$INSUNITS
 70
6
  9
$HYPERLINKBASE
  1

  9
$STYLESHEET
  1

  9
$XEDIT
290
1
  9
$CEPSNTYPE
380
0
  9
$PSTYLEMODE
290
1
  9
$FINGERPRINTGUID
  2
{92AADF3E-FD15-4BBE-BD9F-8518A1D9DA4F}
  9
$VERSIONGUID
  2
{72CE40A0-5357-43CA-B6F3-D67000538108}
  9
$EXTNAMES
290
1
  9
$PSVPSCALE
 40
0.0
  9
$OLESTARTUP
290
0
  9
$SORTENTS
280
127
  9
$INDEXCTL
280
0
  9
$HIDETEXT
280
1
  9
$XCLIPFRAME
280
1
  9
$HALOGAP
280
0
  9
$OBSCOLOR
 70
257
  9
$OBSLTYPE
280
0
  9
$INTERSECTIONDISPLAY
280
0
  9
$INTERSECTIONCOLOR
 70
257
  9
$DIMASSOC
280
2
  9
$PROJECTNAME
  1

  9
$CAMERADISPLAY
290
0
  9
$LENSLENGTH
 40
50.0
  9
$CAMERAHEIGHT
 40
0.0
  9
$STEPSPERSEC
 40
24.0
  9
$STEPSIZE
 40
100.0
  9
$3DDWFPREC
 40
2.0
  9
$PSOLWIDTH
 40
0.005
  9
$PSOLHEIGHT
 40
0.08
  9
$LOFTANG1
 40
1.570796326795
  9
$LOFTANG2
 40
1.570796326795
  9
$LOFTMAG1
 40
0.0
  9
$LOFTMAG2
 40
0.0
  9
$LOFTPARAM
 70
7
  9
$LOFTNORMALS
280
1
  9
$LATITUDE
 40
37.795
  9
$LONGITUDE
 40
-122.394
  9
$NORTHDIRECTION
 40
0.0
  9
$TIMEZONE
 70
-8000
  9
$LIGHTGLYPHDISPLAY
280
1
  9
$TILEMODELIGHTSYNCH
280
1
  9
$CMATERIAL
347
20
  9
$SOLIDHIST
280
0
  9
$SHOWHIST
280
1
  9
$DWFFRAME
280
2
  9
$DGNFRAME
280
2
  9
$REALWORLDSCALE
290
1
  9
$INTERFERECOLOR
 62
256
  9
$CSHADOW
280
0
  9
$SHADOWPLANELOCATION
 40
0.0
  0
ENDSEC
  0
SECTION
  2
CLASSES
  0
CLASS
  1
ACDBDICTIONARYWDFLT
  2
AcDbDictionaryWithDefault
  3
ObjectDBX Classes
 90
0
 91
0
280
0
281
0
  0
CLASS
  1
SUN
  2
AcDbSun
  3
SCENEOE
 90
1153
 91
0
280
0
281
0
  0
CLASS
  1
VISUALSTYLE
  2
AcDbVisualStyle
  3
ObjectDBX Classes
 90
4095
 91
0
280
0
281
0
  0
CLASS
  1
MATERIAL
  2
AcDbMaterial
  3
ObjectDBX Classes
 90
1153
 91
0
280
0
281
0
  0
CLASS
  1
SCALE
  2
AcDbScale
  3
ObjectDBX Classes
 90
1153
 91
0
280
0
281
0
  0
CLASS
  1
TABLESTYLE
  2
AcDbTableStyle
  3
ObjectDBX Classes
 90
4095
 91
0
280
0
281
0
  0
CLASS
  1
MLEADERSTYLE
  2
AcDbMLeaderStyle
  3
ACDB_MLEADERSTYLE_CLASS
 90
4095
 91
0
280
0
281
0
  0
CLASS
  1
DICTIONARYVAR
  2
AcDbDictionaryVar
  3
ObjectDBX Classes
 90
0
 91
0
280
0
281
0
  0
CLASS
  1
CELLSTYLEMAP
  2
AcDbCellStyleMap
  3
ObjectDBX Classes
 90
1152
 91
0
280
0
281
0
  0
CLASS
  1
MENTALRAYRENDERSETTINGS
  2
AcDbMentalRayRenderSettings
  3
SCENEOE
 90
1024
 91
0
280
0
281
0
  0
CLASS
  1
ACDBDETAILVIEWSTYLE
  2
AcDbDetailViewStyle
  3
ObjectDBX Classes
 90
1025
 91
0
280
0
281
0
  0
CLASS
  1
ACDBSECTIONVIEWSTYLE
  2
AcDbSectionViewStyle
  3
ObjectDBX Classes
 90
1025
 91
0
280
0
281
0
  0
CLASS
  1
RASTERVARIABLES
  2
AcDbRasterVariables
  3
ISM
 90
0
 91
0
280
0
281
0
  0
CLASS
  1
ACDBPLACEHOLDER
  2
AcDbPlaceHolder
  3
ObjectDBX Classes
 90
0
 91
0
280
0
281
0
  0
CLASS
  1
LAYOUT
  2
AcDbLayout
  3
ObjectDBX Classes
 90
0
 91
0
280
0
281
0
  0
ENDSEC
  0
SECTION
  2
TABLES
  0
TABLE
  2
VPORT
  5
8
330
0
100
AcDbSymbolTable
 70
1
  0
VPORT
  5
23
330
8
100
AcDbSymbolTableRecord
100
AcDbViewportTableRecord
  2
*Active
 70
0
 10
0.0
 20
0.0
 11
1.0
 21
1.0
 12
0.0
 22
0.0
 13
0.0
 23
0.0
 14
0.5
 24
0.5
 15
0.5
 25
0.5
 16
0.0
 26
0.0
 36
1.0
 17
0.0
 27
0.0
 37
0.0
 40
1000.0
 41
1.34
 42
50.0
 43
0.0
 44
0.0
 50
0.0
 51
0.0
 71
0
 72
1000
 73
1
 74
3
 75
0
 76
0
 77
0
 78
0
281
0
 65
0
146
0.0
  0
ENDTAB
  0
TABLE
  2
LTYPE
  5
2
330
0
100
AcDbSymbolTable
 70
3
  0
LTYPE
  5
24
330
2
100
AcDbSymbolTableRecord
100
AcDbLinetypeTableRecord
  2
ByBlock
 70
0
  3

 72
65
 73
0
 40
0.0
  0
LTYPE
  5
25
330
2
100
AcDbSymbolTableRecord
100
AcDbLinetypeTableRecord
  2
ByLayer
 70
0
  3

 72
65
 73
0
 40
0.0
  0
LTYPE
  5
26
330
2
100
AcDbSymbolTableRecord
100
AcDbLinetypeTableRecord
  2
Continuous
 70
0
  3

 72
65
 73
0
 40
0.0
  0
ENDTAB
  0
TABLE
  2
LAYER
  5
1
330
0
100
AcDbSymbolTable
 70
9
  0
LAYER
  5
27
330
1
100
AcDbSymbolTableRecord
100
AcDbLayerTableRecord
  2
0
 70
0
 62
7
  6
Continuous
370
-3
390
13
347
21
  0
LAYER
  5
28
330
1
100
AcDbSymbolTableRecord
100
AcDbLayerTableRecord
  2
Defpoints
 70
0
 62
7
  6
Continuous
290
0
370
-3
390
13
347
21
  0
LAYER
  5
2F
330
1
100
AcDbSymbolTableRecord
100
AcDbLayerTableRecord
  2
ROAD
 70
0
 62
8
  6
Continuous
370
-3
390
13
347
21
  0
LAYER
  5
30
330
1
100
AcDbSymbolTableRecord
100
AcDbLayerTableRecord
  2
WATER
 70
0
 62
5
  6
Continuous
370
-3
390
13
347
21
  0
LAYER
  5
31
330
1
100
AcDbSymbolTableRecord
100
AcDbLayerTableRecord
  2
ANNOT
 70
0
 62
2
  6
Continuous
370
-3
390
13
347
21
  0
LAYER
  5
34
330
1
100
AcDbSymbolTableRecord
100
AcDbLayerTableRecord
  2
CRACK_C02
 70
0
 62
250
  6
Continuous
370
-3
390
13
347
21
  0
LAYER
  5
36
330
1
100
AcDbSymbolTableRecord
100
AcDbLayerTableRecord
  2
CRACK_C04
 70
0
 62
250
  6
Continuous
370
-3
390
13
347
21
  0
LAYER
  5
38
330
1
100
AcDbSymbolTableRecord
100
AcDbLayerTableRecord
  2
CRACK_C03
 70
0
 62
250
  6
Continuous
370
-3
390
13
347
21
  0
LAYER
  5
3A
330
1
100
AcDbSymbolTableRecord
100
AcDbLayerTableRecord
  2
CRACK_C01
 70
0
 62
250
  6
Continuous
370
-3
390
13
347
21
  0
ENDTAB
  0
TABLE
  2
STYLE
  5
5
330
0
100
AcDbSymbolTable
 70
1
  0
STYLE
  5
29
330
5
100
AcDbSymbolTableRecord
100
AcDbTextStyleTableRecord
  2
Standard
 70
0
 40
0.0
 41
1.0
 50
0.0
 71
0
 42
2.5
  3
txt
  4

  0
ENDTAB
  0
TABLE
  2
VIEW
  5
7
330
0
100
AcDbSymbolTable
 70
0
  0
ENDTAB
  0
TABLE
  2
UCS
  5
6
330
0
100
AcDbSymbolTable
 70
0
  0
ENDTAB
  0
TABLE
  2
APPID
  5
3
330
0
100
AcDbSymbolTable
 70
3
  0
APPID
  5
2A
330
3
100
AcDbSymbolTableRecord
100
AcDbRegAppTableRecord
  2
ACAD
 70
0
  0
APPID
  5
40
330
3
100
AcDbSymbolTableRecord
100
AcDbRegAppTableRecord
  2
HATCHBACKGROUNDCOLOR
 70
0
  0
APPID
  5
41
330
3
100
AcDbSymbolTableRecord
100
AcDbRegAppTableRecord
  2
EZDXF
 70
0
  0
ENDTAB
  0
TABLE
  2
DIMSTYLE
  5
4
330
0
100
AcDbSymbolTable
 70
1
100
AcDbDimStyleTable
  0
DIMSTYLE
105
2B
330
4
100
AcDbSymbolTableRecord
100
AcDbDimStyleTableRecord
  2
Standard
 70
0
 40
1.0
 41
2.5
 42
0.625
 43
3.75
 44
1.25
 45
0.0
 46
0.0
 47
0.0
 48
0.0
 49
2.5
140
2.5
141
2.5
142
0.0
143
0.03937007874
144
1.0
145
0.0
146
1.0
147
0.625
148
0.0
 69
0
 70
0
 71
0
 72
0
 73
0
 74
0
 75
0
 76
0
 77
1
 78
8
 79
3
170
0
171
3
172
1
173
0
174
0
175
0
176
0
177
0
178
0
179
2
271
2
272
2
273
2
274
3
275
0
276
0
277
2
278
44
279
0
280
0
281
0
282
0
283
0
284
8
285
0
286
0
288
0
289
3
290
0
371
-2
372
-2
  0
ENDTAB
  0
TABLE
  2
BLOCK_RECORD
  5
9
330
0
100
AcDbSymbolTable
 70
2
  0
BLOCK_RECORD
  5
17
330
9
100
AcDbSymbolTableRecord
100
AcDbBlockTableRecord
  2
*Model_Space
340
1A
 70
0
280
1
281
0
  0
BLOCK_RECORD
  5
1B
330
9
100
AcDbSymbolTableRecord
100
AcDbBlockTableRecord
  2
*Paper_Space
340
1E
 70
0
280
1
281
0
  0
ENDTAB
  0
ENDSEC
  0
SECTION
  2
BLOCKS
  0
BLOCK
  5
18
330
17
100
AcDbEntity
  8
0
100
AcDbBlockBegin
  2
*Model_Space
 70
0
 10
0.0
 20
0.0
 30
0.0
  3
*Model_Space
  1

  0
ENDBLK
  5
19
330
17
100
AcDbEntity
  8
0
100
AcDbBlockEnd
  0
BLOCK
  5
1C
330
1B
100
AcDbEntity
  8
0
100
AcDbBlockBegin
  2
*Paper_Space
 70
0
 10
0.0
 20
0.0
 30
0.0
  3
*Paper_Space
  1

  0
ENDBLK
  5
1D
330
1B
100
AcDbEntity
  8
0
100
AcDbBlockEnd
  0
ENDSEC
  0
SECTION
  2
ENTITIES
  0
MESH
  5
32
330
17
100
AcDbEntity
  8
ROAD
100
AcDbSubDMesh
 71
2
 72
0
 91
0
 92
480
 10
-9.0
 20
-4.0
 30
0.8800010681152344
 10
-7.5
 20
-4.0
 30
0.8800010681152344
 10
-7.5
 20
-3.2
 30
0.8800010681152344
 10
-9.0
 20
-3.2
 30
0.8800010681152344
 10
-9.0
 20
-3.2
 30
0.8800010681152344
 10
-7.5
 20
-3.2
 30
0.8800010681152344
 10
-7.5
 20
-2.4000000000000004
 30
0.8800010681152344
 10
-9.0
 20
-2.4000000000000004
 30
0.8800010681152344
 10
-9.0
 20
-2.4000000000000004
 30
0.8800010681152344
 10
-7.5
 20
-2.4000000000000004
 30
0.8800010681152344
 10
-7.5
 20
-1.6000000000000005
 30
0.8800010681152344
 10
-9.0
 20
-1.6000000000000005
 30
0.8800010681152344
 10
-9.0
 20
-1.6000000000000005
 30
0.8800010681152344
 10
-7.5
 20
-1.6000000000000005
 30
0.8800010681152344
 10
-7.5
 20
-0.8000000000000007
 30
0.8800010681152344
 10
-9.0
 20
-0.8000000000000007
 30
0.8800010681152344
 10
-9.0
 20
-0.8000000000000007
 30
0.8800010681152344
 10
-7.5
 20
-0.8000000000000007
 30
0.8800010681152344
 10
-7.5
 20
-8.881784197001252e-16
 30
0.8800010681152344
 10
-9.0
 20
-8.881784197001252e-16
 30
0.8800010681152344
 10
-9.0
 20
-8.881784197001252e-16
 30
0.8800010681152344
 10
-7.5
 20
-8.881784197001252e-16
 30
0.8800010681152344
 10
-7.5
 20
0.7999999999999989
 30
0.8800010681152344
 10
-9.0
 20
0.7999999999999989
 30
0.8800010681152344
 10
-9.0
 20
0.7999999999999989
 30
0.8800010681152344
 10
-7.5
 20
0.7999999999999989
 30
0.8800010681152344
 10
-7.5
 20
1.5999999999999988
 30
0.8800010681152344
 10
-9.0
 20
1.5999999999999988
 30
0.8800010681152344
 10
-9.0
 20
1.5999999999999988
 30
0.8800010681152344
 10
-7.5
 20
1.5999999999999988
 30
0.8800010681152344
 10
-7.5
 20
2.3999999999999986
 30
0.8800010681152344
 10
-9.0
 20
2.3999999999999986
 30
0.8800010681152344
 10
-9.0
 20
2.3999999999999986
 30
0.8800010681152344
 10
-7.5
 20
2.3999999999999986
 30
0.8800010681152344
 10
-7.5
 20
3.1999999999999984
 30
0.8800010681152344
 10
-9.0
 20
3.1999999999999984
 30
0.8800010681152344
 10
-9.0
 20
3.1999999999999984
 30
0.8800010681152344
 10
-7.5
 20
3.1999999999999984
 30
0.8800010681152344
 10
-7.5
 20
3.9999999999999982
 30
0.8800010681152344
 10
-9.0
 20
3.9999999999999982
 30
0.8800010681152344
 10
-7.5
 20
-4.0
 30
0.8800010681152344
 10
-6.0
 20
-4.0
 30
0.7399997711181641
 10
-6.0
 20
-3.2
 30
0.7399997711181641
 10
-7.5
 20
-3.2
 30
0.8800010681152344
 10
-7.5
 20
-3.2
 30
0.8800010681152344
 10
-6.0
 20
-3.2
 30
0.7399997711181641
 10
-6.0
 20
-2.4000000000000004
 30
0.7399997711181641
 10
-7.5
 20
-2.4000000000000004
 30
0.8800010681152344
 10
-7.5
 20
-2.4000000000000004
 30
0.8800010681152344
 10
-6.0
 20
-2.4000000000000004
 30
0.7399997711181641
 10
-6.0
 20
-1.6000000000000005
 30
0.7399997711181641
 10
-7.5
 20
-1.6000000000000005
 30
0.8800010681152344
 10
-7.5
 20
-1.6000000000000005
 30
0.8800010681152344
 10
-6.0
 20
-1.6000000000000005
 30
0.7399997711181641
 10
-6.0
 20
-0.8000000000000007
 30
0.7399997711181641
 10
-7.5
 20
-0.8000000000000007
 30
0.8800010681152344
 10
-7.5
 20
-0.8000000000000007
 30
0.8800010681152344
 10
-6.0
 20
-0.8000000000000007
 30
0.7399997711181641
 10
-6.0
 20
-8.881784197001252e-16
 30
0.7399997711181641
 10
-7.5
 20
-8.881784197001252e-16
 30
0.8800010681152344
 10
-7.5
 20
-8.881784197001252e-16
 30
0.8800010681152344
 10
-6.0
 20
-8.881784197001252e-16
 30
0.7399997711181641
 10
-6.0
 20
0.7999999999999989
 30
0.7399997711181641
 10
-7.5
 20
0.7999999999999989
 30
0.8800010681152344
 10
-7.5
 20
0.7999999999999989
 30
0.8800010681152344
 10
-6.0
 20
0.7999999999999989
 30
0.7399997711181641
 10
-6.0
 20
1.5999999999999988
 30
0.7399997711181641
 10
-7.5
 20
1.5999999999999988
 30
0.8800010681152344
 10
-7.5
 20
1.5999999999999988
 30
0.8800010681152344
 10
-6.0
 20
1.5999999999999988
 30
0.7399997711181641
 10
-6.0
 20
2.3999999999999986
 30
0.7399997711181641
 10
-7.5
 20
2.3999999999999986
 30
0.8800010681152344
 10
-7.5
 20
2.3999999999999986
 30
0.8800010681152344
 10
-6.0
 20
2.3999999999999986
 30
0.7399997711181641
 10
-6.0
 20
3.1999999999999984
 30
0.7399997711181641
 10
-7.5
 20
3.1999999999999984
 30
0.8800010681152344
 10
-7.5
 20
3.1999999999999984
 30
0.8800010681152344
 10
-6.0
 20
3.1999999999999984
 30
0.7399997711181641
 10
-6.0
 20
3.9999999999999982
 30
0.7399997711181641
 10
-7.5
 20
3.9999999999999982
 30
0.8800010681152344
 10
-6.0
 20
-4.0
 30
0.7399997711181641
 10
-4.5
 20
-4.0
 30
0.46000099182128906
 10
-4.5
 20
-3.2
 30
0.46000099182128906
 10
-6.0
 20
-3.2
 30
0.7399997711181641
 10
-6.0
 20
-3.2
 30
0.7399997711181641
 10
-4.5
 20
-3.2
 30
0.46000099182128906
 10
-4.5
 20
-2.4000000000000004
 30
0.46000099182128906
 10
-6.0
 20
-2.4000000000000004
 30
0.7399997711181641
 10
-6.0
 20
-2.4000000000000004
 30
0.7399997711181641
 10
-4.5
 20
-2.4000000000000004
 30
0.46000099182128906
 10
-4.5
 20
-1.6000000000000005
 30
0.46000099182128906
 10
-6.0
 20
-1.6000000000000005
 30
0.7399997711181641
 10
-6.0
 20
-1.6000000000000005
 30
0.7399997711181641
 10
-4.5
 20
-1.6000000000000005
 30
0.46000099182128906
 10
-4.5
 20
-0.8000000000000007
 30
0.46000099182128906
 10
-6.0
 20
-0.8000000000000007
 30
0.7399997711181641
 10
-6.0
 20
-0.8000000000000007
 30
0.7399997711181641
 10
-4.5
 20
-0.8000000000000007
 30
0.46000099182128906
 10
-4.5
 20
-8.881784197001252e-16
 30
0.46000099182128906
 10
-6.0
 20
-8.881784197001252e-16
 30
0.7399997711181641
 10
-6.0
 20
-8.881784197001252e-16
 30
0.7399997711181641
 10
-4.5
 20
-8.881784197001252e-16
 30
0.46000099182128906
 10
-4.5
 20
0.7999999999999989
 30
0.46000099182128906
 10
-6.0
 20
0.7999999999999989
 30
0.7399997711181641
 10
-6.0
 20
0.7999999999999989
 30
0.7399997711181641
 10
-4.5
 20
0.7999999999999989
 30
0.46000099182128906
 10
-4.5
 20
1.5999999999999988
 30
0.46000099182128906
 10
-6.0
 20
1.5999999999999988
 30
0.7399997711181641
 10
-6.0
 20
1.5999999999999988
 30
0.7399997711181641
 10
-4.5
 20
1.5999999999999988
 30
0.46000099182128906
 10
-4.5
 20
2.3999999999999986
 30
0.46000099182128906
 10
-6.0
 20
2.3999999999999986
 30
0.7399997711181641
 10
-6.0
 20
2.3999999999999986
 30
0.7399997711181641
 10
-4.5
 20
2.3999999999999986
 30
0.46000099182128906
 10
-4.5
 20
3.1999999999999984
 30
0.46000099182128906
 10
-6.0
 20
3.1999999999999984
 30
0.7399997711181641
 10
-6.0
 20
3.1999999999999984
 30
0.7399997711181641
 10
-4.5
 20
3.1999999999999984
 30
0.46000099182128906
 10
-4.5
 20
3.9999999999999982
 30
0.46000099182128906
 10
-6.0
 20
3.9999999999999982
 30
0.7399997711181641
 10
-4.5
 20
-4.0
 30
0.46000099182128906
 10
-3.0
 20
-4.0
 30
0.23999977111816406
 10
-3.0
 20
-3.2
 30
0.23999977111816406
 10
-4.5
 20
-3.2
 30
0.46000099182128906
 10
-4.5
 20
-3.2
 30
0.46000099182128906
 10
-3.0
 20
-3.2
 30
0.23999977111816406
 10
-3.0
 20
-2.4000000000000004
 30
0.23999977111816406
 10
-4.5
 20
-2.4000000000000004
 30
0.46000099182128906
 10
-4.5
 20
-2.4000000000000004
 30
0.46000099182128906
 10
-3.0
 20
-2.4000000000000004
 30
0.23999977111816406
 10
-3.0
 20
-1.6000000000000005
 30
0.23999977111816406
 10
-4.5
 20
-1.6000000000000005
 30
0.46000099182128906
 10
-4.5
 20
-1.6000000000000005
 30
0.46000099182128906
 10
-3.0
 20
-1.6000000000000005
 30
0.23999977111816406
 10
-3.0
 20
-0.8000000000000007
 30
0.23999977111816406
 10
-4.5
 20
-0.8000000000000007
 30
0.46000099182128906
 10
-4.5
 20
-0.8000000000000007
 30
0.46000099182128906
 10
-3.0
 20
-0.8000000000000007
 30
0.23999977111816406
 10
-3.0
 20
-8.881784197001252e-16
 30
0.23999977111816406
 10
-4.5
 20
-8.881784197001252e-16
 30
0.46000099182128906
 10
-4.5
 20
-8.881784197001252e-16
 30
0.46000099182128906
 10
-3.0
 20
-8.881784197001252e-16
 30
0.23999977111816406
 10
-3.0
 20
0.7999999999999989
 30
0.23999977111816406
 10
-4.5
 20
0.7999999999999989
 30
0.46000099182128906
 10
-4.5
 20
0.7999999999999989
 30
0.46000099182128906
 10
-3.0
 20
0.7999999999999989
 30
0.23999977111816406
 10
-3.0
 20
1.5999999999999988
 30
0.23999977111816406
 10
-4.5
 20
1.5999999999999988
 30
0.46000099182128906
 10
-4.5
 20
1.5999999999999988
 30
0.46000099182128906
 10
-3.0
 20
1.5999999999999988
 30
0.23999977111816406
 10
-3.0
 20
2.3999999999999986
 30
0.23999977111816406
 10
-4.5
 20
2.3999999999999986
 30
0.46000099182128906
 10
-4.5
 20
2.3999999999999986
 30
0.46000099182128906
 10
-3.0
 20
2.3999999999999986
 30
0.23999977111816406
 10
-3.0
 20
3.1999999999999984
 30
0.23999977111816406
 10
-4.5
 20
3.1999999999999984
 30
0.46000099182128906
 10
-4.5
 20
3.1999999999999984
 30
0.46000099182128906
 10
-3.0
 20
3.1999999999999984
 30
0.23999977111816406
 10
-3.0
 20
3.9999999999999982
 30
0.23999977111816406
 10
-4.5
 20
3.9999999999999982
 30
0.46000099182128906
 10
-3.0
 20
-4.0
 30
0.23999977111816406
 10
-1.5
 20
-4.0
 30
0.10000038146972656
 10
-1.5
 20
-3.2
 30
0.10000038146972656
 10
-3.0
 20
-3.2
 30
0.23999977111816406
 10
-3.0
 20
-3.2
 30
0.23999977111816406
 10
-1.5
 20
-3.2
 30
0.10000038146972656
 10
-1.5
 20
-2.4000000000000004
 30
0.10000038146972656
 10
-3.0
 20
-2.4000000000000004
 30
0.23999977111816406
 10
-3.0
 20
-2.4000000000000004
 30
0.23999977111816406
 10
-1.5
 20
-2.4000000000000004
 30
0.10000038146972656
 10
-1.5
 20
-1.6000000000000005
 30
0.10000038146972656
 10
-3.0
 20
-1.6000000000000005
 30
0.23999977111816406
 10
-3.0
 20
-1.6000000000000005
 30
0.23999977111816406
 10
-1.5
 20
-1.6000000000000005
 30
0.10000038146972656
 10
-1.5
 20
-0.8000000000000007
 30
0.10000038146972656
 10
-3.0
 20
-0.8000000000000007
 30
0.23999977111816406
 10
-3.0
 20
-0.8000000000000007
 30
0.23999977111816406
 10
-1.5
 20
-0.8000000000000007
 30
0.10000038146972656
 10
-1.5
 20
-8.881784197001252e-16
 30
0.10000038146972656
 10
-3.0
 20
-8.881784197001252e-16
 30
0.23999977111816406
 10
-3.0
 20
-8.881784197001252e-16
 30
0.23999977111816406
 10
-1.5
 20
-8.881784197001252e-16
 30
0.10000038146972656
 10
-1.5
 20
0.7999999999999989
 30
0.10000038146972656
 10
-3.0
 20
0.7999999999999989
 30
0.23999977111816406
 10
-3.0
 20
0.7999999999999989
 30
0.23999977111816406
 10
-1.5
 20
0.7999999999999989
 30
0.10000038146972656
 10
-1.5
 20
1.5999999999999988
 30
0.10000038146972656
 10
-3.0
 20
1.5999999999999988
 30
0.23999977111816406
 10
-3.0
 20
1.5999999999999988
 30
0.23999977111816406
 10
-1.5
 20
1.5999999999999988
 30
0.10000038146972656
 10
-1.5
 20
2.3999999999999986
 30
0.10000038146972656
 10
-3.0
 20
2.3999999999999986
 30
0.23999977111816406
 10
-3.0
 20
2.3999999999999986
 30
0.23999977111816406
 10
-1.5
 20
2.3999999999999986
 30
0.10000038146972656
 10
-1.5
 20
3.1999999999999984
 30
0.10000038146972656
 10
-3.0
 20
3.1999999999999984
 30
0.23999977111816406
 10
-3.0
 20
3.1999999999999984
 30
0.23999977111816406
 10
-1.5
 20
3.1999999999999984
 30
0.10000038146972656
 10
-1.5
 20
3.9999999999999982
 30
0.10000038146972656
 10
-3.0
 20
3.9999999999999982
 30
0.23999977111816406
 10
-1.5
 20
-4.0
 30
0.10000038146972656
 10
0.0
 20
-4.0
 30
0.0
 10
0.0
 20
-3.2
 30
0.0
 10
-1.5
 20
-3.2
 30
0.10000038146972656
 10
-1.5
 20
-3.2
 30
0.10000038146972656
 10
0.0
 20
-3.2
 30
0.0
 10
0.0
 20
-2.4000000000000004
 30
0.0
 10
-1.5
 20
-2.4000000000000004
 30
0.10000038146972656
 10
-1.5
 20
-2.4000000000000004
 30
0.10000038146972656
 10
0.0
 20
-2.4000000000000004
 30
0.0
 10
0.0
 20
-1.6000000000000005
 30
0.0
 10
-1.5
 20
-1.6000000000000005
 30
0.10000038146972656
 10
-1.5
 20
-1.6000000000000005
 30
0.10000038146972656
 10
0.0
 20
-1.6000000000000005
 30
0.0
 10
0.0
 20
-0.8000000000000007
 30
0.0
 10
-1.5
 20
-0.8000000000000007
 30
0.10000038146972656
 10
-1.5
 20
-0.8000000000000007
 30
0.10000038146972656
 10
0.0
 20
-0.8000000000000007
 30
0.0
 10
0.0
 20
-8.881784197001252e-16
 30
0.0
 10
-1.5
 20
-8.881784197001252e-16
 30
0.10000038146972656
 10
-1.5
 20
-8.881784197001252e-16
 30
0.10000038146972656
 10
0.0
 20
-8.881784197001252e-16
 30
0.0
 10
0.0
 20
0.7999999999999989
 30
0.0
 10
-1.5
 20
0.7999999999999989
 30
0.10000038146972656
 10
-1.5
 20
0.7999999999999989
 30
0.10000038146972656
 10
0.0
 20
0.7999999999999989
 30
0.0
 10
0.0
 20
1.5999999999999988
 30
0.0
 10
-1.5
 20
1.5999999999999988
 30
0.10000038146972656
 10
-1.5
 20
1.5999999999999988
 30
0.10000038146972656
 10
0.0
 20
1.5999999999999988
 30
0.0
 10
0.0
 20
2.3999999999999986
 30
0.0
 10
-1.5
 20
2.3999999999999986
 30
0.10000038146972656
 10
-1.5
 20
2.3999999999999986
 30
0.10000038146972656
 10
0.0
 20
2.3999999999999986
 30
0.0
 10
0.0
 20
3.1999999999999984
 30
0.0
 10
-1.5
 20
3.1999999999999984
 30
0.10000038146972656
 10
-1.5
 20
3.1999999999999984
 30
0.10000038146972656
 10
0.0
 20
3.1999999999999984
 30
0.0
 10
0.0
 20
3.9999999999999982
 30
0.0
 10
-1.5
 20
3.9999999999999982
 30
0.10000038146972656
 10
0.0
 20
-4.0
 30
0.0
 10
1.5
 20
-4.0
 30
0.04000091552734375
 10
1.5
 20
-3.2
 30
0.04000091552734375
 10
0.0
 20
-3.2
 30
0.0
 10
0.0
 20
-3.2
 30
0.0
 10
1.5
 20
-3.2
 30
0.04000091552734375
 10
1.5
 20
-2.4000000000000004
 30
0.04000091552734375
 10
0.0
 20
-2.4000000000000004
 30
0.0
 10
0.0
 20
-2.4000000000000004
 30
0.0
 10
1.5
 20
-2.4000000000000004
 30
0.04000091552734375
 10
1.5
 20
-1.6000000000000005
 30
0.04000091552734375
 10
0.0
 20
-1.6000000000000005
 30
0.0
 10
0.0
 20
-1.6000000000000005
 30
0.0
 10
1.5
 20
-1.6000000000000005
 30
0.04000091552734375
 10
1.5
 20
-0.8000000000000007
 30
0.04000091552734375
 10
0.0
 20
-0.8000000000000007
 30
0.0
 10
0.0
 20
-0.8000000000000007
 30
0.0
 10
1.5
 20
-0.8000000000000007
 30
0.04000091552734375
 10
1.5
 20
-8.881784197001252e-16
 30
0.04000091552734375
 10
0.0
 20
-8.881784197001252e-16
 30
0.0
 10
0.0
 20
-8.881784197001252e-16
 30
0.0
 10
1.5
 20
-8.881784197001252e-16
 30
0.04000091552734375
 10
1.5
 20
0.7999999999999989
 30
0.04000091552734375
 10
0.0
 20
0.7999999999999989
 30
0.0
 10
0.0
 20
0.7999999999999989
 30
0.0
 10
1.5
 20
0.7999999999999989
 30
0.04000091552734375
 10
1.5
 20
1.5999999999999988
 30
0.04000091552734375
 10
0.0
 20
1.5999999999999988
 30
0.0
 10
0.0
 20
1.5999999999999988
 30
0.0
 10
1.5
 20
1.5999999999999988
 30
0.04000091552734375
 10
1.5
 20
2.3999999999999986
 30
0.04000091552734375
 10
0.0
 20
2.3999999999999986
 30
0.0
 10
0.0
 20
2.3999999999999986
 30
0.0
 10
1.5
 20
2.3999999999999986
 30
0.04000091552734375
 10
1.5
 20
3.1999999999999984
 30
0.04000091552734375
 10
0.0
 20
3.1999999999999984
 30
0.0
 10
0.0
 20
3.1999999999999984
 30
0.0
 10
1.5
 20
3.1999999999999984
 30
0.04000091552734375
 10
1.5
 20
3.9999999999999982
 30
0.04000091552734375
 10
0.0
 20
3.9999999999999982
 30
0.0
 10
1.5
 20
-4.0
 30
0.04000091552734375
 10
3.0
 20
-4.0
 30
0.1400012969970703
 10
3.0
 20
-3.2
 30
0.1400012969970703
 10
1.5
 20
-3.2
 30
0.04000091552734375
 10
1.5
 20
-3.2
 30
0.04000091552734375
 10
3.0
 20
-3.2
 30
0.1400012969970703
 10
3.0
 20
-2.4000000000000004
 30
0.1400012969970703
 10
1.5
 20
-2.4000000000000004
 30
0.04000091552734375
 10
1.5
 20
-2.4000000000000004
 30
0.04000091552734375
 10
3.0
 20
-2.4000000000000004
 30
0.1400012969970703
 10
3.0
 20
-1.6000000000000005
 30
0.1400012969970703
 10
1.5
 20
-1.6000000000000005
 30
0.04000091552734375
 10
1.5
 20
-1.6000000000000005
 30
0.04000091552734375
 10
3.0
 20
-1.6000000000000005
 30
0.1400012969970703
 10
3.0
 20
-0.8000000000000007
 30
0.1400012969970703
 10
1.5
 20
-0.8000000000000007
 30
0.04000091552734375
 10
1.5
 20
-0.8000000000000007
 30
0.04000091552734375
 10
3.0
 20
-0.8000000000000007
 30
0.1400012969970703
 10
3.0
 20
-8.881784197001252e-16
 30
0.1400012969970703
 10
1.5
 20
-8.881784197001252e-16
 30
0.04000091552734375
 10
1.5
 20
-8.881784197001252e-16
 30
0.04000091552734375
 10
3.0
 20
-8.881784197001252e-16
 30
0.1400012969970703
 10
3.0
 20
0.7999999999999989
 30
0.1400012969970703
 10
1.5
 20
0.7999999999999989
 30
0.04000091552734375
 10
1.5
 20
0.7999999999999989
 30
0.04000091552734375
 10
3.0
 20
0.7999999999999989
 30
0.1400012969970703
 10
3.0
 20
1.5999999999999988
 30
0.1400012969970703
 10
1.5
 20
1.5999999999999988
 30
0.04000091552734375
 10
1.5
 20
1.5999999999999988
 30
0.04000091552734375
 10
3.0
 20
1.5999999999999988
 30
0.1400012969970703
 10
3.0
 20
2.3999999999999986
 30
0.1400012969970703
 10
1.5
 20
2.3999999999999986
 30
0.04000091552734375
 10
1.5
 20
2.3999999999999986
 30
0.04000091552734375
 10
3.0
 20
2.3999999999999986
 30
0.1400012969970703
 10
3.0
 20
3.1999999999999984
 30
0.1400012969970703
 10
1.5
 20
3.1999999999999984
 30
0.04000091552734375
 10
1.5
 20
3.1999999999999984
 30
0.04000091552734375
 10
3.0
 20
3.1999999999999984
 30
0.1400012969970703
 10
3.0
 20
3.9999999999999982
 30
0.1400012969970703
 10
1.5
 20
3.9999999999999982
 30
0.04000091552734375
 10
3.0
 20
-4.0
 30
0.1400012969970703
 10
4.5
 20
-4.0
 30
0.46000099182128906
 10
4.5
 20
-3.2
 30
0.46000099182128906
 10
3.0
 20
-3.2
 30
0.1400012969970703
 10
3.0
 20
-3.2
 30
0.1400012969970703
 10
4.5
 20
-3.2
 30
0.46000099182128906
 10
4.5
 20
-2.4000000000000004
 30
0.46000099182128906
 10
3.0
 20
-2.4000000000000004
 30
0.1400012969970703
 10
3.0
 20
-2.4000000000000004
 30
0.1400012969970703
 10
4.5
 20
-2.4000000000000004
 30
0.46000099182128906
 10
4.5
 20
-1.6000000000000005
 30
0.46000099182128906
 10
3.0
 20
-1.6000000000000005
 30
0.1400012969970703
 10
3.0
 20
-1.6000000000000005
 30
0.1400012969970703
 10
4.5
 20
-1.6000000000000005
 30
0.46000099182128906
 10
4.5
 20
-0.8000000000000007
 30
0.46000099182128906
 10
3.0
 20
-0.8000000000000007
 30
0.1400012969970703
 10
3.0
 20
-0.8000000000000007
 30
0.1400012969970703
 10
4.5
 20
-0.8000000000000007
 30
0.46000099182128906
 10
4.5
 20
-8.881784197001252e-16
 30
0.46000099182128906
 10
3.0
 20
-8.881784197001252e-16
 30
0.1400012969970703
 10
3.0
 20
-8.881784197001252e-16
 30
0.1400012969970703
 10
4.5
 20
-8.881784197001252e-16
 30
0.46000099182128906
 10
4.5
 20
0.7999999999999989
 30
0.46000099182128906
 10
3.0
 20
0.7999999999999989
 30
0.1400012969970703
 10
3.0
 20
0.7999999999999989
 30
0.1400012969970703
 10
4.5
 20
0.7999999999999989
 30
0.46000099182128906
 10
4.5
 20
1.5999999999999988
 30
0.46000099182128906
 10
3.0
 20
1.5999999999999988
 30
0.1400012969970703
 10
3.0
 20
1.5999999999999988
 30
0.1400012969970703
 10
4.5
 20
1.5999999999999988
 30
0.46000099182128906
 10
4.5
 20
2.3999999999999986
 30
0.46000099182128906
 10
3.0
 20
2.3999999999999986
 30
0.1400012969970703
 10
3.0
 20
2.3999999999999986
 30
0.1400012969970703
 10
4.5
 20
2.3999999999999986
 30
0.46000099182128906
 10
4.5
 20
3.1999999999999984
 30
0.46000099182128906
 10
3.0
 20
3.1999999999999984
 30
0.1400012969970703
 10
3.0
 20
3.1999999999999984
 30
0.1400012969970703
 10
4.5
 20
3.1999999999999984
 30
0.46000099182128906
 10
4.5
 20
3.9999999999999982
 30
0.46000099182128906
 10
3.0
 20
3.9999999999999982
 30
0.1400012969970703
 10
4.5
 20
-4.0
 30
0.46000099182128906
 10
6.0
 20
-4.0
 30
0.5600013732910156
 10
6.0
 20
-3.2
 30
0.5600013732910156
 10
4.5
 20
-3.2
 30
0.46000099182128906
 10
4.5
 20
-3.2
 30
0.46000099182128906
 10
6.0
 20
-3.2
 30
0.5600013732910156
 10
6.0
 20
-2.4000000000000004
 30
0.5600013732910156
 10
4.5
 20
-2.4000000000000004
 30
0.46000099182128906
 10
4.5
 20
-2.4000000000000004
 30
0.46000099182128906
 10
6.0
 20
-2.4000000000000004
 30
0.5600013732910156
 10
6.0
 20
-1.6000000000000005
 30
0.5600013732910156
 10
4.5
 20
-1.6000000000000005
 30
0.46000099182128906
 10
4.5
 20
-1.6000000000000005
 30
0.46000099182128906
 10
6.0
 20
-1.6000000000000005
 30
0.5600013732910156
 10
6.0
 20
-0.8000000000000007
 30
0.5600013732910156
 10
4.5
 20
-0.8000000000000007
 30
0.46000099182128906
 10
4.5
 20
-0.8000000000000007
 30
0.46000099182128906
 10
6.0
 20
-0.8000000000000007
 30
0.5600013732910156
 10
6.0
 20
-8.881784197001252e-16
 30
0.5600013732910156
 10
4.5
 20
-8.881784197001252e-16
 30
0.46000099182128906
 10
4.5
 20
-8.881784197001252e-16
 30
0.46000099182128906
 10
6.0
 20
-8.881784197001252e-16
 30
0.5600013732910156
 10
6.0
 20
0.7999999999999989
 30
0.5600013732910156
 10
4.5
 20
0.7999999999999989
 30
0.46000099182128906
 10
4.5
 20
0.7999999999999989
 30
0.46000099182128906
 10
6.0
 20
0.7999999999999989
 30
0.5600013732910156
 10
6.0
 20
1.5999999999999988
 30
0.5600013732910156
 10
4.5
 20
1.5999999999999988
 30
0.46000099182128906
 10
4.5
 20
1.5999999999999988
 30
0.46000099182128906
 10
6.0
 20
1.5999999999999988
 30
0.5600013732910156
 10
6.0
 20
2.3999999999999986
 30
0.5600013732910156
 10
4.5
 20
2.3999999999999986
 30
0.46000099182128906
 10
4.5
 20
2.3999999999999986
 30
0.46000099182128906
 10
6.0
 20
2.3999999999999986
 30
0.5600013732910156
 10
6.0
 20
3.1999999999999984
 30
0.5600013732910156
 10
4.5
 20
3.1999999999999984
 30
0.46000099182128906
 10
4.5
 20
3.1999999999999984
 30
0.46000099182128906
 10
6.0
 20
3.1999999999999984
 30
0.5600013732910156
 10
6.0
 20
3.9999999999999982
 30
0.5600013732910156
 10
4.5
 20
3.9999999999999982
 30
0.46000099182128906
 10
6.0
 20
-4.0
 30
0.5600013732910156
 10
7.5
 20
-4.0
 30
0.10000038146972656
 10
7.5
 20
-3.2
 30
0.10000038146972656
 10
6.0
 20
-3.2
 30
0.5600013732910156
 10
6.0
 20
-3.2
 30
0.5600013732910156
 10
7.5
 20
-3.2
 30
0.10000038146972656
 10
7.5
 20
-2.4000000000000004
 30
0.10000038146972656
 10
6.0
 20
-2.4000000000000004
 30
0.5600013732910156
 10
6.0
 20
-2.4000000000000004
 30
0.5600013732910156
 10
7.5
 20
-2.4000000000000004
 30
0.10000038146972656
 10
7.5
 20
-1.6000000000000005
 30
0.10000038146972656
 10
6.0
 20
-1.6000000000000005
 30
0.5600013732910156
 10
6.0
 20
-1.6000000000000005
 30
0.5600013732910156
 10
7.5
 20
-1.6000000000000005
 30
0.10000038146972656
 10
7.5
 20
-0.8000000000000007
 30
0.10000038146972656
 10
6.0
 20
-0.8000000000000007
 30
0.5600013732910156
 10
6.0
 20
-0.8000000000000007
 30
0.5600013732910156
 10
7.5
 20
-0.8000000000000007
 30
0.10000038146972656
 10
7.5
 20
-8.881784197001252e-16
 30
0.10000038146972656
 10
6.0
 20
-8.881784197001252e-16
 30
0.5600013732910156
 10
6.0
 20
-8.881784197001252e-16
 30
0.5600013732910156
 10
7.5
 20
-8.881784197001252e-16
 30
0.10000038146972656
 10
7.5
 20
0.7999999999999989
 30
0.10000038146972656
 10
6.0
 20
0.7999999999999989
 30
0.5600013732910156
 10
6.0
 20
0.7999999999999989
 30
0.5600013732910156
 10
7.5
 20
0.7999999999999989
 30
0.10000038146972656
 10
7.5
 20
1.5999999999999988
 30
0.10000038146972656
 10
6.0
 20
1.5999999999999988
 30
0.5600013732910156
 10
6.0
 20
1.5999999999999988
 30
0.5600013732910156
 10
7.5
 20
1.5999999999999988
 30
0.10000038146972656
 10
7.5
 20
2.3999999999999986
 30
0.10000038146972656
 10
6.0
 20
2.3999999999999986
 30
0.5600013732910156
 10
6.0
 20
2.3999999999999986
 30
0.5600013732910156
 10
7.5
 20
2.3999999999999986
 30
0.10000038146972656
 10
7.5
 20
3.1999999999999984
 30
0.10000038146972656
 10
6.0
 20
3.1999999999999984
 30
0.5600013732910156
 10
6.0
 20
3.1999999999999984
 30
0.5600013732910156
 10
7.5
 20
3.1999999999999984
 30
0.10000038146972656
 10
7.5
 20
3.9999999999999982
 30
0.10000038146972656
 10
6.0
 20
3.9999999999999982
 30
0.5600013732910156
 10
7.5
 20
-4.0
 30
0.10000038146972656
 10
9.0
 20
-4.0
 30
-0.1999988555908203
 10
9.0
 20
-3.2
 30
-0.1999988555908203
 10
7.5
 20
-3.2
 30
0.10000038146972656
 10
7.5
 20
-3.2
 30
0.10000038146972656
 10
9.0
 20
-3.2
 30
-0.1999988555908203
 10
9.0
 20
-2.4000000000000004
 30
-0.1999988555908203
 10
7.5
 20
-2.4000000000000004
 30
0.10000038146972656
 10
7.5
 20
-2.4000000000000004
 30
0.10000038146972656
 10
9.0
 20
-2.4000000000000004
 30
-0.1999988555908203
 10
9.0
 20
-1.6000000000000005
 30
-0.1999988555908203
 10
7.5
 20
-1.6000000000000005
 30
0.10000038146972656
 10
7.5
 20
-1.6000000000000005
 30
0.10000038146972656
 10
9.0
 20
-1.6000000000000005
 30
-0.1999988555908203
 10
9.0
 20
-0.8000000000000007
 30
-0.1999988555908203
 10
7.5
 20
-0.8000000000000007
 30
0.10000038146972656
 10
7.5
 20
-0.8000000000000007
 30
0.10000038146972656
 10
9.0
 20
-0.8000000000000007
 30
-0.1999988555908203
 10
9.0
 20
-8.881784197001252e-16
 30
-0.1999988555908203
 10
7.5
 20
-8.881784197001252e-16
 30
0.10000038146972656
 10
7.5
 20
-8.881784197001252e-16
 30
0.10000038146972656
 10
9.0
 20
-8.881784197001252e-16
 30
-0.1999988555908203
 10
9.0
 20
0.7999999999999989
 30
-0.1999988555908203
 10
7.5
 20
0.7999999999999989
 30
0.10000038146972656
 10
7.5
 20
0.7999999999999989
 30
0.10000038146972656
 10
9.0
 20
0.7999999999999989
 30
-0.1999988555908203
 10
9.0
 20
1.5999999999999988
 30
-0.1999988555908203
 10
7.5
 20
1.5999999999999988
 30
0.10000038146972656
 10
7.5
 20
1.5999999999999988
 30
0.10000038146972656
 10
9.0
 20
1.5999999999999988
 30
-0.1999988555908203
 10
9.0
 20
2.3999999999999986
 30
-0.1999988555908203
 10
7.5
 20
2.3999999999999986
 30
0.10000038146972656
 10
7.5
 20
2.3999999999999986
 30
0.10000038146972656
 10
9.0
 20
2.3999999999999986
 30
-0.1999988555908203
 10
9.0
 20
3.1999999999999984
 30
-0.1999988555908203
 10
7.5
 20
3.1999999999999984
 30
0.10000038146972656
 10
7.5
 20
3.1999999999999984
 30
0.10000038146972656
 10
9.0
 20
3.1999999999999984
 30
-0.1999988555908203
 10
9.0
 20
3.9999999999999982
 30
-0.1999988555908203
 10
7.5
 20
3.9999999999999982
 30
0.10000038146972656
 93
600
 90
4
 90
0
 90
1
 90
2
 90
3
 90
4
 90
4
 90
5
 90
6
 90
7
 90
4
 90
8
 90
9
 90
10
 90
11
 90
4
 90
12
 90
13
 90
14
 90
15
 90
4
 90
16
 90
17
 90
18
 90
19
 90
4
 90
20
 90
21
 90
22
 90
23
 90
4
 90
24
 90
25
 90
26
 90
27
 90
4
 90
28
 90
29
 90
30
 90
31
 90
4
 90
32
 90
33
 90
34
 90
35
 90
4
 90
36
 90
37
 90
38
 90
39
 90
4
 90
40
 90
41
 90
42
 90
43
 90
4
 90
44
 90
45
 90
46
 90
47
 90
4
 90
48
 90
49
 90
50
 90
51
 90
4
 90
52
 90
53
 90
54
 90
55
 90
4
 90
56
 90
57
 90
58
 90
59
 90
4
 90
60
 90
61
 90
62
 90
63
 90
4
 90
64
 90
65
 90
66
 90
67
 90
4
 90
68
 90
69
 90
70
 90
71
 90
4
 90
72
 90
73
 90
74
 90
75
 90
4
 90
76
 90
77
 90
78
 90
79
 90
4
 90
80
 90
81
 90
82
 90
83
 90
4
 90
84
 90
85
 90
86
 90
87
 90
4
 90
88
 90
89
 90
90
 90
91
 90
4
 90
92
 90
93
 90
94
 90
95
 90
4
 90
96
 90
97
 90
98
 90
99
 90
4
 90
100
 90
101
 90
102
 90
103
 90
4
 90
104
 90
105
 90
106
 90
107
 90
4
 90
108
 90
109
 90
110
 90
111
 90
4
 90
112
 90
113
 90
114
 90
115
 90
4
 90
116
 90
117
 90
118
 90
119
 90
4
 90
120
 90
121
 90
122
 90
123
 90
4
 90
124
 90
125
 90
126
 90
127
 90
4
 90
128
 90
129
 90
130
 90
131
 90
4
 90
132
 90
133
 90
134
 90
135
 90
4
 90
136
 90
137
 90
138
 90
139
 90
4
 90
140
 90
141
 90
142
 90
143
 90
4
 90
144
 90
145
 90
146
 90
147
 90
4
 90
148
 90
149
 90
150
 90
151
 90
4
 90
152
 90
153
 90
154
 90
155
 90
4
 90
156
 90
157
 90
158
 90
159
 90
4
 90
160
 90
161
 90
162
 90
163
 90
4
 90
164
 90
165
 90
166
 90
167
 90
4
 90
168
 90
169
 90
170
 90
171
 90
4
 90
172
 90
173
 90
174
 90
175
 90
4
 90
176
 90
177
 90
178
 90
179
 90
4
 90
180
 90
181
 90
182
 90
183
 90
4
 90
184
 90
185
 90
186
 90
187
 90
4
 90
188
 90
189
 90
190
 90
191
 90
4
 90
192
 90
193
 90
194
 90
195
 90
4
 90
196
 90
197
 90
198
 90
199
 90
4
 90
200
 90
201
 90
202
 90
203
 90
4
 90
204
 90
205
 90
206
 90
207
 90
4
 90
208
 90
209
 90
210
 90
211
 90
4
 90
212
 90
213
 90
214
 90
215
 90
4
 90
216
 90
217
 90
218
 90
219
 90
4
 90
220
 90
221
 90
222
 90
223
 90
4
 90
224
 90
225
 90
226
 90
227
 90
4
 90
228
 90
229
 90
230
 90
231
 90
4
 90
232
 90
233
 90
234
 90
235
 90
4
 90
236
 90
237
 90
238
 90
239
 90
4
 90
240
 90
241
 90
242
 90
243
 90
4
 90
244
 90
245
 90
246
 90
247
 90
4
 90
248
 90
249
 90
250
 90
251
 90
4
 90
252
 90
253
 90
254
 90
255
 90
4
 90
256
 90
257
 90
258
 90
259
 90
4
 90
260
 90
261
 90
262
 90
263
 90
4
 90
264
 90
265
 90
266
 90
267
 90
4
 90
268
 90
269
 90
270
 90
271
 90
4
 90
272
 90
273
 90
274
 90
275
 90
4
 90
276
 90
277
 90
278
 90
279
 90
4
 90
280
 90
281
 90
282
 90
283
 90
4
 90
284
 90
285
 90
286
 90
287
 90
4
 90
288
 90
289
 90
290
 90
291
 90
4
 90
292
 90
293
 90
294
 90
295
 90
4
 90
296
 90
297
 90
298
 90
299
 90
4
 90
300
 90
301
 90
302
 90
303
 90
4
 90
304
 90
305
 90
306
 90
307
 90
4
 90
308
 90
309
 90
310
 90
311
 90
4
 90
312
 90
313
 90
314
 90
315
 90
4
 90
316
 90
317
 90
318
 90
319
 90
4
 90
320
 90
321
 90
322
 90
323
 90
4
 90
324
 90
325
 90
326
 90
327
 90
4
 90
328
 90
329
 90
330
 90
331
 90
4
 90
332
 90
333
 90
334
 90
335
 90
4
 90
336
 90
337
 90
338
 90
339
 90
4
 90
340
 90
341
 90
342
 90
343
 90
4
 90
344
 90
345
 90
346
 90
347
 90
4
 90
348
 90
349
 90
350
 90
351
 90
4
 90
352
 90
353
 90
354
 90
355
 90
4
 90
356
 90
357
 90
358
 90
359
 90
4
 90
360
 90
361
 90
362
 90
363
 90
4
 90
364
 90
365
 90
366
 90
367
 90
4
 90
368
 90
369
 90
370
 90
371
 90
4
 90
372
 90
373
 90
374
 90
375
 90
4
 90
376
 90
377
 90
378
 90
379
 90
4
 90
380
 90
381
 90
382
 90
383
 90
4
 90
384
 90
385
 90
386
 90
387
 90
4
 90
388
 90
389
 90
390
 90
391
 90
4
 90
392
 90
393
 90
394
 90
395
 90
4
 90
396
 90
397
 90
398
 90
399
 90
4
 90
400
 90
401
 90
402
 90
403
 90
4
 90
404
 90
405
 90
406
 90
407
 90
4
 90
408
 90
409
 90
410
 90
411
 90
4
 90
412
 90
413
 90
414
 90
415
 90
4
 90
416
 90
417
 90
418
 90
419
 90
4
 90
420
 90
421
 90
422
 90
423
 90
4
 90
424
 90
425
 90
426
 90
427
 90
4
 90
428
 90
429
 90
430
 90
431
 90
4
 90
432
 90
433
 90
434
 90
435
 90
4
 90
436
 90
437
 90
438
 90
439
 90
4
 90
440
 90
441
 90
442
 90
443
 90
4
 90
444
 90
445
 90
446
 90
447
 90
4
 90
448
 90
449
 90
450
 90
451
 90
4
 90
452
 90
453
 90
454
 90
455
 90
4
 90
456
 90
457
 90
458
 90
459
 90
4
 90
460
 90
461
 90
462
 90
463
 90
4
 90
464
 90
465
 90
466
 90
467
 90
4
 90
468
 90
469
 90
470
 90
471
 90
4
 90
472
 90
473
 90
474
 90
475
 90
4
 90
476
 90
477
 90
478
 90
479
 94
0
 95
0
 90
0
  0
MESH
  5
33
330
17
100
AcDbEntity
  8
WATER
100
AcDbSubDMesh
 71
2
 72
0
 91
0
 92
160
 10
-3.0
 20
-4.0
 30
0.2534919918882563
 10
-1.5
 20
-4.0
 30
0.2534919918882563
 10
-1.5
 20
-3.2
 30
0.2534919918882563
 10
-3.0
 20
-3.2
 30
0.2534919918882563
 10
-3.0
 20
-3.2
 30
0.2534919918882563
 10
-1.5
 20
-3.2
 30
0.2534919918882563
 10
-1.5
 20
-2.4000000000000004
 30
0.2534919918882563
 10
-3.0
 20
-2.4000000000000004
 30
0.2534919918882563
 10
-3.0
 20
-2.4000000000000004
 30
0.2534919918882563
 10
-1.5
 20
-2.4000000000000004
 30
0.2534919918882563
 10
-1.5
 20
-1.6000000000000005
 30
0.2534919918882563
 10
-3.0
 20
-1.6000000000000005
 30
0.2534919918882563
 10
-3.0
 20
-1.6000000000000005
 30
0.2534919918882563
 10
-1.5
 20
-1.6000000000000005
 30
0.2534919918882563
 10
-1.5
 20
-0.8000000000000007
 30
0.2534919918882563
 10
-3.0
 20
-0.8000000000000007
 30
0.2534919918882563
 10
-3.0
 20
-0.8000000000000007
 30
0.2534919918882563
 10
-1.5
 20
-0.8000000000000007
 30
0.2534919918882563
 10
-1.5
 20
-8.881784197001252e-16
 30
0.2534919918882563
 10
-3.0
 20
-8.881784197001252e-16
 30
0.2534919918882563
 10
-3.0
 20
-8.881784197001252e-16
 30
0.2534919918882563
 10
-1.5
 20
-8.881784197001252e-16
 30
0.2534919918882563
 10
-1.5
 20
0.7999999999999989
 30
0.2534919918882563
 10
-3.0
 20
0.7999999999999989
 30
0.2534919918882563
 10
-3.0
 20
0.7999999999999989
 30
0.2534919918882563
 10
-1.5
 20
0.7999999999999989
 30
0.2534919918882563
 10
-1.5
 20
1.5999999999999988
 30
0.2534919918882563
 10
-3.0
 20
1.5999999999999988
 30
0.2534919918882563
 10
-3.0
 20
1.5999999999999988
 30
0.2534919918882563
 10
-1.5
 20
1.5999999999999988
 30
0.2534919918882563
 10
-1.5
 20
2.3999999999999986
 30
0.2534919918882563
 10
-3.0
 20
2.3999999999999986
 30
0.2534919918882563
 10
-3.0
 20
2.3999999999999986
 30
0.2534919918882563
 10
-1.5
 20
2.3999999999999986
 30
0.2534919918882563
 10
-1.5
 20
3.1999999999999984
 30
0.2534919918882563
 10
-3.0
 20
3.1999999999999984
 30
0.2534919918882563
 10
-3.0
 20
3.1999999999999984
 30
0.2534919918882563
 10
-1.5
 20
3.1999999999999984
 30
0.2534919918882563
 10
-1.5
 20
3.9999999999999982
 30
0.2534919918882563
 10
-3.0
 20
3.9999999999999982
 30
0.2534919918882563
 10
-1.5
 20
-4.0
 30
0.2534919918882563
 10
0.0
 20
-4.0
 30
0.2534919918882563
 10
0.0
 20
-3.2
 30
0.2534919918882563
 10
-1.5
 20
-3.2
 30
0.2534919918882563
 10
-1.5
 20
-3.2
 30
0.2534919918882563
 10
0.0
 20
-3.2
 30
0.2534919918882563
 10
0.0
 20
-2.4000000000000004
 30
0.2534919918882563
 10
-1.5
 20
-2.4000000000000004
 30
0.2534919918882563
 10
-1.5
 20
-2.4000000000000004
 30
0.2534919918882563
 10
0.0
 20
-2.4000000000000004
 30
0.2534919918882563
 10
0.0
 20
-1.6000000000000005
 30
0.2534919918882563
 10
-1.5
 20
-1.6000000000000005
 30
0.2534919918882563
 10
-1.5
 20
-1.6000000000000005
 30
0.2534919918882563
 10
0.0
 20
-1.6000000000000005
 30
0.2534919918882563
 10
0.0
 20
-0.8000000000000007
 30
0.2534919918882563
 10
-1.5
 20
-0.8000000000000007
 30
0.2534919918882563
 10
-1.5
 20
-0.8000000000000007
 30
0.2534919918882563
 10
0.0
 20
-0.8000000000000007
 30
0.2534919918882563
 10
0.0
 20
-8.881784197001252e-16
 30
0.2534919918882563
 10
-1.5
 20
-8.881784197001252e-16
 30
0.2534919918882563
 10
-1.5
 20
-8.881784197001252e-16
 30
0.2534919918882563
 10
0.0
 20
-8.881784197001252e-16
 30
0.2534919918882563
 10
0.0
 20
0.7999999999999989
 30
0.2534919918882563
 10
-1.5
 20
0.7999999999999989
 30
0.2534919918882563
 10
-1.5
 20
0.7999999999999989
 30
0.2534919918882563
 10
0.0
 20
0.7999999999999989
 30
0.2534919918882563
 10
0.0
 20
1.5999999999999988
 30
0.2534919918882563
 10
-1.5
 20
1.5999999999999988
 30
0.2534919918882563
 10
-1.5
 20
1.5999999999999988
 30
0.2534919918882563
 10
0.0
 20
1.5999999999999988
 30
0.2534919918882563
 10
0.0
 20
2.3999999999999986
 30
0.2534919918882563
 10
-1.5
 20
2.3999999999999986
 30
0.2534919918882563
 10
-1.5
 20
2.3999999999999986
 30
0.2534919918882563
 10
0.0
 20
2.3999999999999986
 30
0.2534919918882563
 10
0.0
 20
3.1999999999999984
 30
0.2534919918882563
 10
-1.5
 20
3.1999999999999984
 30
0.2534919918882563
 10
-1.5
 20
3.1999999999999984
 30
0.2534919918882563
 10
0.0
 20
3.1999999999999984
 30
0.2534919918882563
 10
0.0
 20
3.9999999999999982
 30
0.2534919918882563
 10
-1.5
 20
3.9999999999999982
 30
0.2534919918882563
 10
0.0
 20
-4.0
 30
0.2534919918882563
 10
1.5
 20
-4.0
 30
0.2534919918882563
 10
1.5
 20
-3.2
 30
0.2534919918882563
 10
0.0
 20
-3.2
 30
0.2534919918882563
 10
0.0
 20
-3.2
 30
0.2534919918882563
 10
1.5
 20
-3.2
 30
0.2534919918882563
 10
1.5
 20
-2.4000000000000004
 30
0.2534919918882563
 10
0.0
 20
-2.4000000000000004
 30
0.2534919918882563
 10
0.0
 20
-2.4000000000000004
 30
0.2534919918882563
 10
1.5
 20
-2.4000000000000004
 30
0.2534919918882563
 10
1.5
 20
-1.6000000000000005
 30
0.2534919918882563
 10
0.0
 20
-1.6000000000000005
 30
0.2534919918882563
 10
0.0
 20
-1.6000000000000005
 30
0.2534919918882563
 10
1.5
 20
-1.6000000000000005
 30
0.2534919918882563
 10
1.5
 20
-0.8000000000000007
 30
0.2534919918882563
 10
0.0
 20
-0.8000000000000007
 30
0.2534919918882563
 10
0.0
 20
-0.8000000000000007
 30
0.2534919918882563
 10
1.5
 20
-0.8000000000000007
 30
0.2534919918882563
 10
1.5
 20
-8.881784197001252e-16
 30
0.2534919918882563
 10
0.0
 20
-8.881784197001252e-16
 30
0.2534919918882563
 10
0.0
 20
-8.881784197001252e-16
 30
0.2534919918882563
 10
1.5
 20
-8.881784197001252e-16
 30
0.2534919918882563
 10
1.5
 20
0.7999999999999989
 30
0.2534919918882563
 10
0.0
 20
0.7999999999999989
 30
0.2534919918882563
 10
0.0
 20
0.7999999999999989
 30
0.2534919918882563
 10
1.5
 20
0.7999999999999989
 30
0.2534919918882563
 10
1.5
 20
1.5999999999999988
 30
0.2534919918882563
 10
0.0
 20
1.5999999999999988
 30
0.2534919918882563
 10
0.0
 20
1.5999999999999988
 30
0.2534919918882563
 10
1.5
 20
1.5999999999999988
 30
0.2534919918882563
 10
1.5
 20
2.3999999999999986
 30
0.2534919918882563
 10
0.0
 20
2.3999999999999986
 30
0.2534919918882563
 10
0.0
 20
2.3999999999999986
 30
0.2534919918882563
 10
1.5
 20
2.3999999999999986
 30
0.2534919918882563
 10
1.5
 20
3.1999999999999984
 30
0.2534919918882563
 10
0.0
 20
3.1999999999999984
 30
0.2534919918882563
 10
0.0
 20
3.1999999999999984
 30
0.2534919918882563
 10
1.5
 20
3.1999999999999984
 30
0.2534919918882563
 10
1.5
 20
3.9999999999999982
 30
0.2534919918882563
 10
0.0
 20
3.9999999999999982
 30
0.2534919918882563
 10
1.5
 20
-4.0
 30
0.2534919918882563
 10
3.0
 20
-4.0
 30
0.2534919918882563
 10
3.0
 20
-3.2
 30
0.2534919918882563
 10
1.5
 20
-3.2
 30
0.2534919918882563
 10
1.5
 20
-3.2
 30
0.2534919918882563
 10
3.0
 20
-3.2
 30
0.2534919918882563
 10
3.0
 20
-2.4000000000000004
 30
0.2534919918882563
 10
1.5
 20
-2.4000000000000004
 30
0.2534919918882563
 10
1.5
 20
-2.4000000000000004
 30
0.2534919918882563
 10
3.0
 20
-2.4000000000000004
 30
0.2534919918882563
 10
3.0
 20
-1.6000000000000005
 30
0.2534919918882563
 10
1.5
 20
-1.6000000000000005
 30
0.2534919918882563
 10
1.5
 20
-1.6000000000000005
 30
0.2534919918882563
 10
3.0
 20
-1.6000000000000005
 30
0.2534919918882563
 10
3.0
 20
-0.8000000000000007
 30
0.2534919918882563
 10
1.5
 20
-0.8000000000000007
 30
0.2534919918882563
 10
1.5
 20
-0.8000000000000007
 30
0.2534919918882563
 10
3.0
 20
-0.8000000000000007
 30
0.2534919918882563
 10
3.0
 20
-8.881784197001252e-16
 30
0.2534919918882563
 10
1.5
 20
-8.881784197001252e-16
 30
0.2534919918882563
 10
1.5
 20
-8.881784197001252e-16
 30
0.2534919918882563
 10
3.0
 20
-8.881784197001252e-16
 30
0.2534919918882563
 10
3.0
 20
0.7999999999999989
 30
0.2534919918882563
 10
1.5
 20
0.7999999999999989
 30
0.2534919918882563
 10
1.5
 20
0.7999999999999989
 30
0.2534919918882563
 10
3.0
 20
0.7999999999999989
 30
0.2534919918882563
 10
3.0
 20
1.5999999999999988
 30
0.2534919918882563
 10
1.5
 20
1.5999999999999988
 30
0.2534919918882563
 10
1.5
 20
1.5999999999999988
 30
0.2534919918882563
 10
3.0
 20
1.5999999999999988
 30
0.2534919918882563
 10
3.0
 20
2.3999999999999986
 30
0.2534919918882563
 10
1.5
 20
2.3999999999999986
 30
0.2534919918882563
 10
1.5
 20
2.3999999999999986
 30
0.2534919918882563
 10
3.0
 20
2.3999999999999986
 30
0.2534919918882563
 10
3.0
 20
3.1999999999999984
 30
0.2534919918882563
 10
1.5
 20
3.1999999999999984
 30
0.2534919918882563
 10
1.5
 20
3.1999999999999984
 30
0.2534919918882563
 10
3.0
 20
3.1999999999999984
 30
0.2534919918882563
 10
3.0
 20
3.9999999999999982
 30
0.2534919918882563
 10
1.5
 20
3.9999999999999982
 30
0.2534919918882563
 93
200
 90
4
 90
0
 90
1
 90
2
 90
3
 90
4
 90
4
 90
5
 90
6
 90
7
 90
4
 90
8
 90
9
 90
10
 90
11
 90
4
 90
12
 90
13
 90
14
 90
15
 90
4
 90
16
 90
17
 90
18
 90
19
 90
4
 90
20
 90
21
 90
22
 90
23
 90
4
 90
24
 90
25
 90
26
 90
27
 90
4
 90
28
 90
29
 90
30
 90
31
 90
4
 90
32
 90
33
 90
34
 90
35
 90
4
 90
36
 90
37
 90
38
 90
39
 90
4
 90
40
 90
41
 90
42
 90
43
 90
4
 90
44
 90
45
 90
46
 90
47
 90
4
 90
48
 90
49
 90
50
 90
51
 90
4
 90
52
 90
53
 90
54
 90
55
 90
4
 90
56
 90
57
 90
58
 90
59
 90
4
 90
60
 90
61
 90
62
 90
63
 90
4
 90
64
 90
65
 90
66
 90
67
 90
4
 90
68
 90
69
 90
70
 90
71
 90
4
 90
72
 90
73
 90
74
 90
75
 90
4
 90
76
 90
77
 90
78
 90
79
 90
4
 90
80
 90
81
 90
82
 90
83
 90
4
 90
84
 90
85
 90
86
 90
87
 90
4
 90
88
 90
89
 90
90
 90
91
 90
4
 90
92
 90
93
 90
94
 90
95
 90
4
 90
96
 90
97
 90
98
 90
99
 90
4
 90
100
 90
101
 90
102
 90
103
 90
4
 90
104
 90
105
 90
106
 90
107
 90
4
 90
108
 90
109
 90
110
 90
111
 90
4
 90
112
 90
113
 90
114
 90
115
 90
4
 90
116
 90
117
 90
118
 90
119
 90
4
 90
120
 90
121
 90
122
 90
123
 90
4
 90
124
 90
125
 90
126
 90
127
 90
4
 90
128
 90
129
 90
130
 90
131
 90
4
 90
132
 90
133
 90
134
 90
135
 90
4
 90
136
 90
137
 90
138
 90
139
 90
4
 90
140
 90
141
 90
142
 90
143
 90
4
 90
144
 90
145
 90
146
 90
147
 90
4
 90
148
 90
149
 90
150
 90
151
 90
4
 90
152
 90
153
 90
154
 90
155
 90
4
 90
156
 90
157
 90
158
 90
159
 94
0
 95
0
 90
0
  0
MESH
  5
35
330
17
100
AcDbEntity
  8
CRACK_C02
100
AcDbSubDMesh
 71
2
 72
0
 91
0
 92
24
 10
-0.9408613803305379
 20
-2.5620406481086087
 30
0.12500038146972656
 10
-0.7058613803305379
 20
-2.631319641491336
 30
0.025
 10
-0.734138619669462
 20
-2.7272383452741185
 30
0.025
 10
-0.969138619669462
 20
-2.657959351891391
 30
0.12500038146972656
 10
-0.7347142011936155
 20
-2.631493092917906
 30
0.025
 10
-0.4997142011936156
 20
-2.55913205656901
 30
0.025
 10
-0.4702857988063844
 20
-2.654703857498652
 30
0.025
 10
-0.7052857988063844
 20
-2.7270648938475484
 30
0.025
 10
-0.49536507616617365
 20
-2.558004102186054
 30
0.025
 10
-0.26036507616617366
 20
-2.508206495625885
 30
0.025
 10
-0.23963492383382634
 20
-2.6060342053214396
 30
0.025
 10
-0.4746349238338263
 20
-2.655831811881608
 30
0.025
 10
-0.23035009473699636
 20
-2.51114338642475
 30
0.025
 10
0.00464990526300358
 20
-2.611579068343489
 30
0.025
 10
-0.03464990526300372
 20
-2.7035329964413135
 30
0.025
 10
-0.26964990526300364
 20
-2.6030973145225746
 30
0.025
 10
-0.03751106250951155
 20
-2.61291018079684
 30
0.025
 10
0.19748893749048854
 20
-2.4944198955704033
 30
0.025
 10
0.24251106250951152
 20
-2.583711598761526
 30
0.025
 10
0.007511062509511411
 20
-2.7022018839879625
 30
0.025
 10
0.23444852273480934
 20
-2.491198846380749
 30
0.025
 10
0.46944852273480925
 20
-2.562133099214784
 30
0.025
 10
0.44055147726519067
 20
-2.6578669007852156
 30
0.025
 10
0.2055514772651907
 20
-2.5869326479511803
 30
0.025
 93
30
 90
4
 90
0
 90
1
 90
2
 90
3
 90
4
 90
4
 90
5
 90
6
 90
7
 90
4
 90
8
 90
9
 90
10
 90
11
 90
4
 90
12
 90
13
 90
14
 90
15
 90
4
 90
16
 90
17
 90
18
 90
19
 90
4
 90
20
 90
21
 90
22
 90
23
 94
0
 95
0
 90
0
  0
MESH
  5
37
330
17
100
AcDbEntity
  8
CRACK_C04
100
AcDbSubDMesh
 71
2
 72
0
 91
0
 92
36
 10
-1.989745350023796
 20
-3.8099601437510566
 30
0.12500038146972656
 10
-1.9693701573760305
 20
-3.608849032639945
 30
0.12500038146972656
 10
-1.8698794573284383
 20
-3.6189287451378327
 30
0.12500038146972656
 10
-1.8902546499762038
 20
-3.820039856248944
 30
0.12500038146972656
 10
-1.969265670048286
 20
-3.61987092456178
 30
0.12500038146972656
 10
-1.9935008218071852
 20
-3.418759813450669
 30
0.12500038146972656
 10
-1.894219096415082
 20
-3.4067957421048867
 30
0.12500038146972656
 10
-1.8699839446561828
 20
-3.6079068532159977
 30
0.12500038146972656
 10
-1.9937134280813005
 20
-3.4166029093625223
 30
0.12500038146972656
 10
-2.0091441790209092
 20
-3.2154917982514113
 30
0.12500038146972656
 10
-1.9094372410805753
 20
-3.2078415350819225
 30
0.12500038146972656
 10
-1.8940064901409668
 20
-3.4089526461930335
 30
0.12500038146972656
 10
-2.00906400546646
 20
-3.206910716345263
 30
0.12500038146972656
 10
-1.989847386483568
 20
-3.005799605234152
 30
0.12500038146972656
 10
-1.890300795652132
 20
-3.01531150587696
 30
0.12500038146972656
 10
-1.9095174146350242
 20
-3.216422616988071
 30
0.12500038146972656
 10
-1.9891375979569241
 20
-3.0201873929579306
 30
0.12500038146972656
 10
-2.0286184594944534
 20
-2.819076281846819
 30
0.12500038146972656
 10
-1.9304914457163054
 20
-2.7998126070420697
 30
0.12500038146972656
 10
-1.8910105841787759
 20
-3.000923718153181
 30
0.12500038146972656
 10
-2.0289041768413827
 20
-2.8014036691519313
 30
0.12500038146972656
 10
-1.996135895712207
 20
-2.6002925580408203
 30
0.12500038146972656
 10
-1.8974374472402011
 20
-2.6163741086258465
 30
0.12500038146972656
 10
-1.9302057283693765
 20
-2.8174852197369575
 30
0.12500038146972656
 10
-1.9950360806015788
 20
-2.621448001421097
 30
0.12500038146972656
 10
-2.0497000758461645
 20
-2.420336890309986
 30
0.12500038146972656
 10
-1.9532012575954152
 20
-2.3941075541344587
 30
0.12500038146972656
 10
-1.8985372623508294
 20
-2.5952186652455698
 30
0.12500038146972656
 10
-2.0495948121559993
 20
-2.3937262502189394
 30
0.12500038146972656
 10
-1.9932184885019157
 20
-2.1926151391078283
 30
0.12500038146972656
 10
-1.8969301976314965
 20
-2.2196070831143944
 30
0.12500038146972656
 10
-1.9533065212855802
 20
-2.4207181942255054
 30
0.12500038146972656
 10
-1.9950584348966154
 20
-2.2048499354932085
 30
0.12500038146972656
 10
-1.9899840918299092
 20
-2.003738824382097
 30
0.12500038146972656
 10
-1.8900159081700907
 20
-2.0062611756179027
 30
0.12500038146972656
 10
-1.8950902512367969
 20
-2.207372286729014
 30
0.12500038146972656
 93
45
 90
4
 90
0
 90
1
 90
2
 90
3
 90
4
 90
4
 90
5
 90
6
 90
7
 90
4
 90
8
 90
9
 90
10
 90
11
 90
4
 90
12
 90
13
 90
14
 90
15
 90
4
 90
16
 90
17
 90
18
 90
19
 90
4
 90
20
 90
21
 90
22
 90
23
 90
4
 90
24
 90
25
 90
26
 90
27
 90
4
 90
28
 90
29
 90
30
 90
31
 90
4
 90
32
 90
33
 90
34
 90
35
 94
0
 95
0
 90
0
  0
MESH
  5
39
330
17
100
AcDbEntity
  8
CRACK_C03
100
AcDbSubDMesh
 71
2
 72
0
 91
0
 92
28
 10
-3.3796506008881075
 20
-1.8440993363551315
 30
0.2649997711181641
 10
-3.354184082834279
 20
-1.629813622069417
 30
0.2649997711181641
 10
-3.254882881058064
 20
-1.6416149493591543
 30
0.2649997711181641
 10
-3.2803493991118926
 20
-1.8559006636448687
 30
0.2649997711181641
 10
-3.352846874570196
 20
-1.6228373259350186
 30
0.2649997711181641
 10
-3.2957333419809625
 20
-1.4085516116493044
 30
0.2649997711181641
 10
-3.199106556732914
 20
-1.4343055312078385
 30
0.2649997711181641
 10
-3.2562200893221473
 20
-1.6485912454935527
 30
0.2649997711181641
 10
-3.2904801068882406
 20
-1.446841615980129
 30
0.2649997711181641
 10
-3.416946258340346
 20
-1.2325559016944148
 30
0.2649997711181641
 10
-3.330825943277741
 20
-1.1817298125912998
 30
0.2649997711181641
 10
-3.204359791825636
 20
-1.396015526877014
 30
0.2649997711181641
 10
-3.4213471300084737
 20
-1.1914122911221818
 30
0.2649997711181641
 10
-3.3503239003668477
 20
-0.9771265768364674
 30
0.2649997711181641
 10
-3.2554018419679873
 20
-1.0085877088778186
 30
0.2649997711181641
 10
-3.3264250716096133
 20
-1.2228734231635328
 30
0.2649997711181641
 10
-3.352582226338597
 20
-0.9875669896115277
 30
0.2649997711181641
 10
-3.329782166623127
 20
-0.7732812753258134
 30
0.2649997711181641
 10
-3.230343456280768
 20
-0.783861581817044
 30
0.2649997711181641
 10
-3.253143515996238
 20
-0.9981472961027583
 30
0.2649997711181641
 10
-3.3300419787331363
 20
-0.777128224539104
 30
0.2649997711181641
 10
-3.323854240446366
 20
-0.5628425102533898
 30
0.2649997711181641
 10
-3.223895905883988
 20
-0.5657289183180392
 30
0.2649997711181641
 10
-3.2300836441707586
 20
-0.7800146326037534
 30
0.2649997711181641
 10
-3.3222435472508454
 20
-0.5769542072751753
 30
0.2649997711181641
 10
-3.3783684740856685
 20
-0.3626684929894609
 30
0.2649997711181641
 10
-3.2816315259143316
 20
-0.33733150701053927
 30
0.2649997711181641
 10
-3.2255065990795084
 20
-0.5516172212962537
 30
0.2649997711181641
 93
35
 90
4
 90
0
 90
1
 90
2
 90
3
 90
4
 90
4
 90
5
 90
6
 90
7
 90
4
 90
8
 90
9
 90
10
 90
11
 90
4
 90
12
 90
13
 90
14
 90
15
 90
4
 90
16
 90
17
 90
18
 90
19
 90
4
 90
20
 90
21
 90
22
 90
23
 90
4
 90
24
 90
25
 90
26
 90
27
 94
0
 95
0
 90
0
  0
MESH
  5
3B
330
17
100
AcDbEntity
  8
CRACK_C01
100
AcDbSubDMesh
 71
2
 72
0
 91
0
 92
24
 10
-5.59
 20
-4.05
 30
0.7649997711181641
 10
-5.596904333124042
 20
-4.05
 30
0.7649997711181641
 10
-5.596904333124042
 20
-3.95
 30
0.7649997711181641
 10
-5.59
 20
-3.95
 30
0.7649997711181641
 10
-5.596904333124042
 20
-4.05
 30
0.7649997711181641
 10
-5.656350808142222
 20
-4.05
 30
0.7649997711181641
 10
-5.656350808142222
 20
-3.95
 30
0.7649997711181641
 10
-5.596904333124042
 20
-3.95
 30
0.7649997711181641
 10
-5.696789417585128
 20
-3.970593897464571
 30
0.7649997711181641
 10
-5.638615107557091
 20
-3.890593897464571
 30
0.7649997711181641
 10
-5.557737888671279
 20
-3.949406102535429
 30
0.7649997711181641
 10
-5.615912198699316
 20
-4.029406102535429
 30
0.7649997711181641
 10
-5.641379956365501
 20
-3.894831344987728
 30
0.7649997711181641
 10
-5.583123844399036
 20
-3.794831344987728
 30
0.7649997711181641
 10
-5.496716927896403
 20
-3.8451686550122717
 30
0.7649997711181641
 10
-5.554973039862869
 20
-3.9451686550122718
 30
0.7649997711181641
 10
-5.5895619815227855
 20
-3.8140240474718885
 30
0.7649997711181641
 10
-5.5775237855644155
 20
-3.7140240474718884
 30
0.7649997711181641
 10
-5.478240594814284
 20
-3.725975952528111
 30
0.7649997711181641
 10
-5.490278790772654
 20
-3.825975952528111
 30
0.7649997711181641
 10
-5.5703549004531245
 20
-3.7463831173830804
 30
0.7649997711181641
 10
-5.632472710263775
 20
-3.6463831173830807
 30
0.7649997711181641
 10
-5.547527289736225
 20
-3.5936168826169195
 30
0.7649997711181641
 10
-5.485409479925575
 20
-3.693616882616919
 30
0.7649997711181641
 93
30
 90
4
 90
0
 90
1
 90
2
 90
3
 90
4
 90
4
 90
5
 90
6
 90
7
 90
4
 90
8
 90
9
 90
10
 90
11
 90
4
 90
12
 90
13
 90
14
 90
15
 90
4
 90
16
 90
17
 90
18
 90
19
 90
4
 90
20
 90
21
 90
22
 90
23
 94
0
 95
0
 90
0
  0
TEXT
  5
3C
330
17
100
AcDbEntity
  8
ANNOT
100
AcDbText
 10
-9.0
 20
-4.0
 30
0.8534919918882562
 40
0.45
  1
Avon Street | CurbRisk 51.3 | PCI 96.0
 11
-9.0
 21
-4.0
 31
0.8534919918882562
100
AcDbText
  0
TEXT
  5
3D
330
17
100
AcDbEntity
  8
ANNOT
100
AcDbText
 10
-9.0
 20
-4.0
 30
0.15349199188825624
 40
0.35
  1
Ponding 5.0 in @ 2.0" storm (true depth; Z exaggerated 2x)
 11
-9.0
 21
-4.0
 31
0.15349199188825624
100
AcDbText
  0
TEXT
  5
3E
330
17
100
AcDbEntity
  8
ANNOT
100
AcDbText
 10
-9.0
 20
-4.0
 30
-0.44650800811174385
 40
0.3
  1
Catchment 9644 sqft | Volume 230 cf
 11
-9.0
 21
-4.0
 31
-0.44650800811174385
100
AcDbText
  0
TEXT
  5
3F
330
17
100
AcDbEntity
  8
ANNOT
100
AcDbText
 10
-9.0
 20
-4.0
 30
-1.0465080081117437
 40
0.26
  1
Longitudinal profile: LiDAR-measured | cross-street: extruded
 11
-9.0
 21
-4.0
 31
-1.0465080081117437
100
AcDbText
  0
ENDSEC
  0
SECTION
  2
OBJECTS
  0
DICTIONARY
  5
A
330
0
100
AcDbDictionary
281
1
  3
ACAD_COLOR
350
B
  3
ACAD_GROUP
350
C
  3
ACAD_LAYOUT
350
D
  3
ACAD_MATERIAL
350
E
  3
ACAD_MLEADERSTYLE
350
F
  3
ACAD_MLINESTYLE
350
10
  3
ACAD_PLOTSETTINGS
350
11
  3
ACAD_PLOTSTYLENAME
350
12
  3
ACAD_SCALELIST
350
14
  3
ACAD_TABLESTYLE
350
15
  3
ACAD_VISUALSTYLE
350
16
  3
EZDXF_META
350
2D
  0
DICTIONARY
  5
B
330
A
100
AcDbDictionary
281
1
  0
DICTIONARY
  5
C
330
A
100
AcDbDictionary
281
1
  0
DICTIONARY
  5
D
330
A
100
AcDbDictionary
281
1
  3
Model
350
1A
  3
Layout1
350
1E
  0
DICTIONARY
  5
E
330
A
100
AcDbDictionary
281
1
  3
ByBlock
350
1F
  3
ByLayer
350
20
  3
Global
350
21
  0
DICTIONARY
  5
F
330
A
100
AcDbDictionary
281
1
  3
Standard
350
2C
  0
DICTIONARY
  5
10
330
A
100
AcDbDictionary
281
1
  3
Standard
350
22
  0
DICTIONARY
  5
11
330
A
100
AcDbDictionary
281
1
  0
ACDBDICTIONARYWDFLT
  5
12
330
A
100
AcDbDictionary
281
1
  3
Normal
350
13
100
AcDbDictionaryWithDefault
340
13
  0
ACDBPLACEHOLDER
  5
13
330
12
  0
DICTIONARY
  5
14
330
A
100
AcDbDictionary
281
1
  0
DICTIONARY
  5
15
330
A
100
AcDbDictionary
281
1
  0
DICTIONARY
  5
16
330
A
100
AcDbDictionary
281
1
  0
LAYOUT
  5
1A
330
D
100
AcDbPlotSettings
  1

  4
A3
  6

 40
7.5
 41
20.0
 42
7.5
 43
20.0
 44
420.0
 45
297.0
 46
0.0
 47
0.0
 48
0.0
 49
0.0
140
0.0
141
0.0
142
1.0
143
1.0
 70
1024
 72
1
 73
0
 74
5
  7

 75
16
 76
0
 77
2
 78
300
147
1.0
148
0.0
149
0.0
100
AcDbLayout
  1
Model
 70
1
 71
0
 10
0.0
 20
0.0
 11
420.0
 21
297.0
 12
0.0
 22
0.0
 32
0.0
 14
1e+20
 24
1e+20
 34
1e+20
 15
-1e+20
 25
-1e+20
 35
-1e+20
146
0.0
 13
0.0
 23
0.0
 33
0.0
 16
1.0
 26
0.0
 36
0.0
 17
0.0
 27
1.0
 37
0.0
 76
1
330
17
  0
LAYOUT
  5
1E
330
D
100
AcDbPlotSettings
  1

  4
A3
  6

 40
7.5
 41
20.0
 42
7.5
 43
20.0
 44
420.0
 45
297.0
 46
0.0
 47
0.0
 48
0.0
 49
0.0
140
0.0
141
0.0
142
1.0
143
1.0
 70
0
 72
1
 73
0
 74
5
  7

 75
16
 76
0
 77
2
 78
300
147
1.0
148
0.0
149
0.0
100
AcDbLayout
  1
Layout1
 70
1
 71
1
 10
0.0
 20
0.0
 11
420.0
 21
297.0
 12
0.0
 22
0.0
 32
0.0
 14
1e+20
 24
1e+20
 34
1e+20
 15
-1e+20
 25
-1e+20
 35
-1e+20
146
0.0
 13
0.0
 23
0.0
 33
0.0
 16
1.0
 26
0.0
 36
0.0
 17
0.0
 27
1.0
 37
0.0
 76
1
330
1B
  0
MATERIAL
  5
1F
102
{ACAD_REACTORS
330
E
102
}
330
E
100
AcDbMaterial
  1
ByBlock
  2

 70
0
 40
1.0
 71
1
 41
1.0
 91
-1023410177
 42
1.0
 72
1
  3

 73
1
 74
1
 75
1
 44
0.5
 73
0
 45
1.0
 46
1.0
 77
1
  4

 78
1
 79
1
170
1
 48
1.0
171
1
  6

172
1
173
1
174
1
140
1.0
141
1.0
175
1
  7

176
1
177
1
178
1
143
1.0
179
1
  8

270
1
271
1
272
1
145
1.0
146
1.0
273
1
  9

274
1
275
1
276
1
 42
1.0
 72
1
  3

 73
1
 74
1
 75
1
 94
63
  0
MATERIAL
  5
20
102
{ACAD_REACTORS
330
E
102
}
330
E
100
AcDbMaterial
  1
ByLayer
  2

 70
0
 40
1.0
 71
1
 41
1.0
 91
-1023410177
 42
1.0
 72
1
  3

 73
1
 74
1
 75
1
 44
0.5
 73
0
 45
1.0
 46
1.0
 77
1
  4

 78
1
 79
1
170
1
 48
1.0
171
1
  6

172
1
173
1
174
1
140
1.0
141
1.0
175
1
  7

176
1
177
1
178
1
143
1.0
179
1
  8

270
1
271
1
272
1
145
1.0
146
1.0
273
1
  9

274
1
275
1
276
1
 42
1.0
 72
1
  3

 73
1
 74
1
 75
1
 94
63
  0
MATERIAL
  5
21
102
{ACAD_REACTORS
330
E
102
}
330
E
100
AcDbMaterial
  1
Global
  2

 70
0
 40
1.0
 71
1
 41
1.0
 91
-1023410177
 42
1.0
 72
1
  3

 73
1
 74
1
 75
1
 44
0.5
 73
0
 45
1.0
 46
1.0
 77
1
  4

 78
1
 79
1
170
1
 48
1.0
171
1
  6

172
1
173
1
174
1
140
1.0
141
1.0
175
1
  7

176
1
177
1
178
1
143
1.0
179
1
  8

270
1
271
1
272
1
145
1.0
146
1.0
273
1
  9

274
1
275
1
276
1
 42
1.0
 72
1
  3

 73
1
 74
1
 75
1
 94
63
  0
MLINESTYLE
  5
22
102
{ACAD_REACTORS
330
10
102
}
330
10
100
AcDbMlineStyle
  2
Standard
 70
0
  3

 62
256
 51
90.0
 52
90.0
 71
2
 49
0.5
 62
256
  6
BYLAYER
 49
-0.5
 62
256
  6
BYLAYER
  0
MLEADERSTYLE
  5
2C
102
{ACAD_REACTORS
330
F
102
}
330
F
100
AcDbMLeaderStyle
179
2
170
2
171
1
172
0
 90
2
 40
0.0
 41
0.0
173
1
 91
-1056964608
 92
-2
290
1
 42
2.0
291
1
 43
8.0
  3
Standard
 44
4.0
300

342
29
174
1
175
1
176
0
178
1
 93
-1056964608
 45
4.0
292
0
297
0
 46
4.0
 94
-1056964608
 47
1.0
 49
1.0
140
1.0
294
1
141
0.0
177
0
142
1.0
295
0
296
0
143
3.75
271
0
272
9
273
9
  0
DICTIONARY
  5
2D
330
A
100
AcDbDictionary
280
1
281
1
  3
CREATED_BY_EZDXF
350
2E
  3
WRITTEN_BY_EZDXF
350
42
  0
DICTIONARYVAR
  5
2E
330
2D
100
DictionaryVariables
280
0
  1
1.4.4 @ 2026-06-13T21:21:14.943017+00:00
  0
DICTIONARYVAR
  5
42
330
2D
100
DictionaryVariables
280
0
  1
1.4.4 @ 2026-06-13T21:21:14.944771+00:00
  0
ENDSEC
  0
EOF
